<svg xmlns="http://www.w3.org/2000/svg" xmlns:xlink="http://www.w3.org/1999/xlink" width="1440" height="1440" viewBox="0 0 1440 1440">
  <defs>
    <linearGradient id="cleanmymac-x-b" x1="77.72%" x2="-2.947%" y1="36.808%" y2="66.854%">
      <stop offset="0%" stop-color="#FFF"/>
      <stop offset="31.065%" stop-color="#F2E8FF"/>
      <stop offset="47.307%" stop-color="#FDE7F8" stop-opacity=".702"/>
      <stop offset="65.653%" stop-color="#F5EFFF"/>
      <stop offset="82.255%" stop-color="#FDF2FD"/>
      <stop offset="100%" stop-color="#FFF"/>
    </linearGradient>
    <path id="cleanmymac-x-a" d="M471.053551,10.8998696 C483.336179,4.37310875 529.465739,-11.4598968 542.963719,13.9117173 C556.461699,39.2833313 517.740263,68.7168722 504.567406,75.717244 C491.394549,82.7171483 469.942052,82.0640047 457.769357,59.1843416 C445.596662,36.304211 458.77139,17.4266305 471.053551,10.8998696 Z M607.979878,260.457771 C620.262506,253.931011 666.391598,238.098005 679.890045,263.469619 C693.388025,288.841233 654.66659,318.274774 641.493733,325.275146 C628.320876,332.27505 606.867911,331.621906 594.695684,308.742243 C582.522989,285.862113 595.697717,266.984532 607.979878,260.457771 Z M594.704572,1242.00266 C514.599904,1242.00266 436.800567,1226.33516 363.454245,1195.49575 C292.675225,1165.64704 229.178489,1123.10247 174.718767,1068.90511 C120.180453,1014.62967 77.3517099,951.412189 47.436661,881.000314 C16.4480048,808.085268 0.704571765,730.634684 0.704571765,650.889916 C0.704571765,571.14468 16.4480048,493.694096 47.436661,420.727153 C77.4041038,350.340993 120.180453,287.097803 174.718767,232.900441 C229.204686,178.676897 292.701422,136.05425 363.454245,106.257436 C381.791177,98.5931668 401.096928,94.6308245 420.874223,94.6308245 C480.232308,94.6308245 533.591759,129.823905 556.747994,184.28215 C588.443968,258.786808 553.23807,345.101351 478.372325,376.644401 C442.825399,391.58208 410.815061,413.062885 383.283935,440.435072 C355.752809,467.885806 334.168391,499.715921 319.132276,535.091339 C303.572221,571.718343 295.740268,610.665245 295.740268,650.889916 C295.740268,691.114118 303.572221,730.061021 319.132276,766.661843 C334.168391,802.089625 355.752809,833.893558 383.283935,861.291928 C410.762668,888.690297 442.773005,910.171102 478.372325,925.161145 C515.15004,940.619657 554.28548,948.414367 594.704572,948.414367 C635.14986,948.414367 674.285301,940.619657 711.089681,925.161145 C746.662336,910.171102 778.646476,888.690297 806.151405,861.291928 C833.630138,833.91974 855.24122,802.115807 870.303533,766.661843 C885.863119,730.009125 893.747934,691.087937 893.747934,650.889916 C893.747934,569.945925 959.890562,504.09577 1041.22649,504.09577 C1122.53575,504.09577 1188.70457,569.945925 1188.70457,650.889916 C1188.70457,730.634684 1172.9878,808.085268 1141.94629,881.000314 C1112.0841,951.412189 1069.25489,1014.62967 1014.74324,1068.90511 C960.257319,1123.10247 896.70819,1165.64704 825.981095,1195.49575 C752.634773,1226.33516 674.80924,1242.00266 594.704572,1242.00266 Z M616.811993,149.542109 C630.51721,142.259348 686.936558,121.96374 701.998402,150.274266 C717.059779,178.584793 668.906973,214.056522 654.208143,221.867596 C639.509314,229.678671 615.57138,228.949787 601.989196,203.419679 C588.406544,177.889571 603.107244,156.825339 616.811993,149.542109 Z M564.636084,56.103299 C578.3413,48.8200697 633.414312,29.2397871 648.476156,57.5503137 C663.537533,85.8608403 616.730595,120.617712 602.031766,128.428319 C587.333404,136.239393 563.395471,135.510509 549.812818,109.980401 C536.230166,84.4502932 550.930867,63.3860608 564.636084,56.103299 Z"/>
    <path id="cleanmymac-x-d" d="M593,1186 C265.495143,1186 0,920.504857 0,593 C0,265.495143 265.495143,0 593,0 C920.504857,0 1186,265.495143 1186,593 C1186,920.504857 920.504857,1186 593,1186 Z M595,893 C759.580855,893 893,759.580855 893,595 C893,430.419145 759.580855,297 595,297 C430.419145,297 297,430.419145 297,595 C297,759.580855 430.419145,893 595,893 Z"/>
    <filter id="cleanmymac-x-e" width="184.3%" height="178.5%" x="-42.1%" y="-39.3%" filterUnits="objectBoundingBox">
      <feGaussianBlur in="SourceGraphic" stdDeviation="50"/>
    </filter>
  </defs>
  <g fill="none" fill-rule="evenodd" transform="translate(124 71)">
    <mask id="cleanmymac-x-c" fill="#fff">
      <use xlink:href="#cleanmymac-x-a"/>
    </mask>
    <use fill="url(#cleanmymac-x-b)" xlink:href="#cleanmymac-x-a"/>
    <g mask="url(#cleanmymac-x-c)">
      <g transform="translate(1 56)">
        <mask id="cleanmymac-x-f" fill="#fff">
          <use xlink:href="#cleanmymac-x-d"/>
        </mask>
        <ellipse cx="268" cy="1128" fill="#E4FDFF" fill-rule="nonzero" filter="url(#cleanmymac-x-e)" mask="url(#cleanmymac-x-f)" opacity=".556" rx="178" ry="191"/>
      </g>
    </g>
  </g>
</svg>
