<svg width="92" height="91" viewBox="0 0 92 91" fill="none" xmlns="http://www.w3.org/2000/svg">
<g clip-path="url(#clip0)">
<path d="M29.3921 50.8207C29.2032 50.6432 29.0527 50.429 28.9499 50.1911C28.847 49.9533 28.7939 49.6969 28.7939 49.4377C28.7939 49.1786 28.847 48.9222 28.9499 48.6843C29.0527 48.4465 29.2032 48.2322 29.3921 48.0547C29.7829 47.6866 30.2996 47.4816 30.8366 47.4816C31.3735 47.4816 31.8902 47.6866 32.2811 48.0547L46.7231 61.8847C46.912 62.0622 47.0627 62.2765 47.1656 62.5145C47.2686 62.7524 47.3217 63.009 47.3217 63.2682C47.3217 63.5275 47.2686 63.784 47.1656 64.022C47.0627 64.2599 46.912 64.4742 46.7231 64.6517C46.3322 65.0195 45.8158 65.2243 45.2791 65.2243C44.7424 65.2243 44.2259 65.0195 43.8351 64.6517L29.3921 50.8217V50.8207Z" fill="#FF3568"/>
<path fill-rule="evenodd" clip-rule="evenodd" d="M27.3991 36.6847L34.7821 29.6147C39.6691 24.9347 45.2501 25.2997 49.6171 29.4827C50.1721 30.0127 50.8651 30.9427 51.2811 31.5407C51.4541 31.7727 51.5581 31.9387 51.6971 32.0707C51.9741 32.3367 52.2521 32.4037 52.8411 32.2377C56.4811 31.2747 59.6691 32.3377 62.7191 35.2577C66.9831 39.3417 67.4341 44.8177 62.0261 49.9967L51.6621 59.9217C51.1081 60.4527 50.6571 60.4197 50.1021 59.8887L27.4351 38.1787C26.8801 37.6487 26.8451 37.2167 27.4001 36.6857L27.3991 36.6847ZM42.5461 40.4367L44.3141 38.7437C45.2151 37.8807 45.3541 36.6857 44.2791 35.6567C43.2391 34.6607 41.9571 34.7607 41.0561 35.6237L39.2881 37.3167C38.7331 37.8467 38.7681 38.2787 39.3231 38.8097L40.9861 40.4037C41.5411 40.9337 41.9921 40.9677 42.5461 40.4367ZM51.0041 48.5367L55.6481 44.0877C57.0001 42.7937 57.2781 41.5977 56.1341 40.5027C55.0241 39.4407 53.7421 39.6727 52.3901 40.9677L47.7461 45.4157C47.1911 45.9467 47.2261 46.3787 47.7801 46.9097L49.4441 48.5027C49.9991 49.0337 50.4491 49.0667 51.0041 48.5357V48.5367Z" fill="#FF3568"/>
</g>
<ellipse cx="46.0003" cy="45.2335" rx="45.639" ry="45.0778" fill="#FF3568" fill-opacity="0.1"/>
<defs>
<clipPath id="clip0">
<rect width="39" height="39" fill="white" transform="translate(27 26.2247)"/>
</clipPath>
</defs>
</svg>
