<svg width="21" height="21" viewBox="0 0 21 21" fill="none" xmlns="http://www.w3.org/2000/svg">
<path d="M8.26835 1.26712C9.15114 -0.422373 11.601 -0.422373 12.4838 1.26712C13.0142 2.2823 14.2109 2.77106 15.314 2.42303C17.1498 1.84387 18.8822 3.55194 18.2947 5.36208C17.9417 6.44976 18.4374 7.6297 19.467 8.15271C21.1805 9.02315 21.1805 11.4387 19.467 12.3092C18.4374 12.8322 17.9417 14.0121 18.2947 15.0998C18.8822 16.9099 17.1498 18.6181 15.314 18.0388C14.2109 17.6908 13.0142 18.1795 12.4838 19.1948C11.601 20.8843 9.15114 20.8843 8.26835 19.1948C7.73793 18.1795 6.54124 17.6908 5.43814 18.0388C3.60232 18.6181 1.87002 16.9099 2.4574 15.0998C2.81036 14.0121 2.31468 12.8322 1.28509 12.3092C-0.428364 11.4387 -0.428364 9.02315 1.28509 8.15271C2.31468 7.6297 2.81036 6.44976 2.4574 5.36208C1.87002 3.55194 3.60232 1.84387 5.43814 2.42303C6.54124 2.77106 7.73793 2.2823 8.26835 1.26712Z" fill="url(#paint0_radial)"/>
<path fill-rule="evenodd" clip-rule="evenodd" d="M14.5956 7.22972C14.953 7.56946 14.9633 8.13048 14.6187 8.48278L9.34951 13.8707L6.13461 10.5834C5.79006 10.2311 5.8004 9.67007 6.15772 9.33033C6.51504 8.99061 7.08401 9.00081 7.42857 9.35311L9.34951 11.3173L13.3248 7.2525C13.6693 6.90018 14.2383 6.88999 14.5956 7.22972Z" fill="white"/>
<defs>
<radialGradient id="paint0_radial" cx="0" cy="0" r="1" gradientUnits="userSpaceOnUse" gradientTransform="translate(11.0247) rotate(91.8153) scale(20.4723 20.7621)">
<stop stop-color="#31E7FA"/>
<stop offset="0.526042" stop-color="#4477FF"/>
<stop offset="1" stop-color="#DB74FF"/>
</radialGradient>
</defs>
</svg>
