<svg width="92" height="91" viewBox="0 0 92 91" fill="none" xmlns="http://www.w3.org/2000/svg">
<ellipse cx="46.0003" cy="45.0778" rx="45.639" ry="45.0778" fill="#0052FF" fill-opacity="0.1"/>
<path d="M69 45.2247C69 57.9273 58.7025 68.2247 46 68.2247C33.2975 68.2247 23 57.9273 23 45.2247C23 32.5222 33.2975 22.2247 46 22.2247C58.7025 22.2247 69 32.5222 69 45.2247Z" fill="#0052FF"/>
<path d="M46.0059 37.1388C41.5384 37.1388 37.9199 40.7573 37.9199 45.2247C37.9199 49.6922 41.5384 53.3107 46.0059 53.3107C50.0084 53.3107 53.3304 50.393 53.9706 46.5724H62.1171C61.4298 54.874 54.4826 61.3966 46.0059 61.3966C37.0776 61.3966 29.834 54.153 29.834 45.2247C29.834 36.2965 37.0776 29.0529 46.0059 29.0529C54.4826 29.0529 61.4298 35.5755 62.1171 43.8771H53.9638C53.3237 40.0565 50.0084 37.1388 46.0059 37.1388Z" fill="white"/>
</svg>
