<svg width="27" height="27" viewBox="0 0 27 27" fill="none" xmlns="http://www.w3.org/2000/svg">
<circle cx="13.5" cy="13.5" r="13.5" fill="url(#paint0_linear)"/>
<path d="M13.3453 6.1875C12.8272 6.67028 12.4116 7.25247 12.1234 7.89934C11.8352 8.54621 11.6802 9.24451 11.6677 9.95258C11.6552 10.6606 11.7855 11.364 12.0507 12.0206C12.3159 12.6772 12.7107 13.2737 13.2114 13.7745C13.7122 14.2752 14.3087 14.67 14.9653 14.9352C15.622 15.2005 16.3253 15.3307 17.0334 15.3182C17.7414 15.3057 18.4397 15.1507 19.0866 14.8625C19.7335 14.5743 20.3157 14.1587 20.7984 13.6406C20.5748 17.3215 17.5191 20.2366 13.782 20.2366C9.89789 20.2366 6.75 17.0887 6.75 13.2054C6.75 9.46828 9.66516 6.4125 13.3453 6.1875Z" fill="white"/>
<defs>
<linearGradient id="paint0_linear" x1="15.75" y1="27" x2="15.75" y2="2.241e-07" gradientUnits="userSpaceOnUse">
<stop stop-color="#061834"/>
<stop offset="1" stop-color="#545C6D"/>
</linearGradient>
</defs>
</svg>
