<svg width="32" height="38" viewBox="0 0 32 38" fill="none" xmlns="http://www.w3.org/2000/svg">
<path d="M12.6665 16.6903C13.7061 16.6903 14.5481 17.4877 14.529 18.4624C14.529 19.437 13.7078 20.2344 12.6665 20.2344C11.6443 20.2344 10.8022 19.437 10.8022 18.4624C10.8022 17.4877 11.6252 16.6903 12.6665 16.6903ZM19.3335 16.6903C20.3748 16.6903 21.1978 17.4877 21.1978 18.4624C21.1978 19.437 20.3748 20.2344 19.3335 20.2344C18.3113 20.2344 17.471 19.437 17.471 18.4624C17.471 17.4877 18.2922 16.6903 19.3335 16.6903ZM27.9394 0.741699C29.9544 0.741699 31.5934 2.45352 31.5934 4.57468V37.9551L27.7626 34.4198L25.6055 32.3359L23.3237 30.1208L24.2697 33.5639H4.06067C2.04566 33.5639 0.406616 31.8521 0.406616 29.7309V4.57468C0.406616 2.45352 2.04566 0.741699 4.06067 0.741699H27.9376H27.9394ZM21.0609 25.0421C24.9991 24.9127 26.5152 22.2138 26.5152 22.2138C26.5152 16.2225 23.9474 11.3652 23.9474 11.3652C21.3832 9.35749 18.9402 9.41242 18.9402 9.41242L18.6907 9.71013C21.7211 10.6777 23.1279 12.0741 23.1279 12.0741C21.4734 11.1207 19.65 10.5135 17.7638 10.2878C16.5673 10.1496 15.3588 10.1615 14.1652 10.3233C14.0578 10.3233 13.9677 10.3428 13.862 10.3605C13.2382 10.4172 11.7222 10.6582 9.81636 11.5336C9.15798 11.849 8.76468 12.0741 8.76468 12.0741C8.76468 12.0741 10.2443 10.6033 13.4514 9.6357L13.2729 9.41242C13.2729 9.41242 10.8317 9.35749 8.26569 11.367C8.26569 11.367 5.69971 16.2225 5.69971 22.2138C5.69971 22.2138 7.19668 24.9109 11.1349 25.0421C11.1349 25.0421 11.7933 24.2056 12.3304 23.4986C10.0659 22.7898 9.21169 21.3012 9.21169 21.3012C9.21169 21.3012 9.38841 21.4324 9.70894 21.6184C9.72627 21.6361 9.7436 21.6556 9.77998 21.6734C9.83369 21.7123 9.8874 21.7301 9.94111 21.7673C10.3864 22.0278 10.8317 22.2316 11.2406 22.3999C11.9717 22.6976 12.8449 22.9953 13.862 23.2009C15.3855 23.5063 16.9519 23.5123 18.4776 23.2186C19.3663 23.0564 20.2333 22.7881 21.0609 22.4194C21.6847 22.1766 22.3794 21.8222 23.1106 21.3207C23.1106 21.3207 22.22 22.8465 19.8845 23.5358C20.4199 24.2429 21.0627 25.0421 21.0627 25.0421H21.0609Z" fill="#7289D9"/>
</svg>
