<svg width="36" height="36" viewBox="0 0 36 36" fill="none" xmlns="http://www.w3.org/2000/svg">
<path d="M18 3.2981C9.73259 3.2981 3.03638 9.91198 3.03638 18.0777C3.03468 21.1804 4.0222 24.2048 5.85884 26.7218C7.69547 29.2389 10.288 31.1208 13.2685 32.1006C14.0167 32.2292 14.2965 31.7858 14.2965 31.3971C14.2965 31.0468 14.277 29.8837 14.277 28.6451C10.5182 29.3294 9.54555 27.7406 9.24627 26.9085C9.07718 26.4829 8.34846 25.1719 7.7125 24.8202C7.18878 24.5438 6.4406 23.8595 7.69305 23.8418C8.87218 23.8226 9.71314 24.9133 9.99445 25.3567C11.3412 27.5914 13.4929 26.9632 14.3519 26.576C14.4835 25.6153 14.8756 24.9695 15.3065 24.6C11.9771 24.2305 8.49809 22.955 8.49809 17.3018C8.49809 15.6938 9.07718 14.3651 10.0319 13.329C9.88223 12.9595 9.3585 11.4446 10.1815 9.41243C10.1815 9.41243 11.434 9.0252 14.2965 10.9288C15.5146 10.5949 16.7732 10.4268 18.0374 10.4293C19.3093 10.4293 20.5812 10.5948 21.7783 10.9273C24.6393 9.00599 25.8933 9.4139 25.8933 9.4139C26.7163 11.4461 26.1926 12.961 26.0429 13.3305C26.9961 14.3651 27.5767 15.676 27.5767 17.3018C27.5767 22.9742 24.0797 24.2305 20.7503 24.6C21.292 25.0611 21.7603 25.9479 21.7603 27.3342C21.7603 29.3102 21.7409 30.899 21.7409 31.3986C21.7409 31.7858 22.0222 32.2469 22.7704 32.0991C25.7407 31.1086 28.3217 29.223 30.1503 26.7078C31.9788 24.1925 32.9627 21.1742 32.9636 18.0777C32.9636 9.91198 26.2674 3.2981 18 3.2981Z" fill="black"/>
</svg>
