<svg width="85" height="97" viewBox="0 0 85 97" fill="none" xmlns="http://www.w3.org/2000/svg">
<g clip-path="url(#clip0)">
<path d="M0.149414 72.8757L41.9038 97.2513L83.6582 72.8757V24.1244L41.9038 -0.251282L0.149414 24.1244V72.8757V72.8757Z" fill="#469EA2"/>
<path d="M37.6287 5.57874L7.30708 23.2699C7.35678 23.8216 7.35678 24.3768 7.30708 24.9285L37.579 42.6197C38.8237 41.6892 40.3308 41.1871 41.8787 41.1871C43.4267 41.1871 44.9337 41.6892 46.1784 42.6197L76.4504 24.9285C76.4007 24.3768 76.4007 23.8216 76.4504 23.2699L46.2281 5.57874C44.9835 6.50919 43.4764 7.01133 41.9284 7.01133C40.3805 7.01133 38.8734 6.50919 37.6287 5.57874V5.57874ZM79.3831 29.8036L49.0615 47.6958C49.2258 49.2476 48.9009 50.8123 48.1331 52.1662C47.3654 53.5201 46.1941 54.5941 44.7866 55.2347L44.8363 90.416C45.3265 90.6347 45.793 90.9042 46.2281 91.2202L76.5001 73.529C76.3357 71.9772 76.6607 70.4126 77.4284 69.0587C78.1961 67.7047 79.3674 66.6308 80.7749 65.9901V30.6078C80.2903 30.378 79.8249 30.1091 79.3831 29.8036V29.8036ZM4.42404 30.0046C3.98888 30.3207 3.52244 30.5902 3.03223 30.8088V66.1912C4.45695 66.8091 5.64437 67.8786 6.41545 69.2384C7.18653 70.5983 7.49947 72.1747 7.30708 73.73L37.579 91.4212C38.0142 91.1052 38.4806 90.8357 38.9708 90.6171V55.2347C37.5461 54.6168 36.3587 53.5473 35.5876 52.1874C34.8165 50.8276 34.5036 49.2512 34.696 47.6958L4.42404 30.0046V30.0046Z" fill="#6ACAD1"/>
<path d="M41.9038 5.02587L79.2342 26.8383V70.4129L41.9038 92.2254L4.57339 70.4129V26.788L41.9038 5.02587ZM41.9038 -0.150818L0.149414 24.2248V72.9761L41.9038 97.3518L83.6582 72.9761V24.2248L41.9038 -0.150818V-0.150818Z" fill="#469EA2"/>
<path d="M42.202 56.7927H41.6056C40.58 56.7954 39.564 56.5931 38.616 56.1975C37.6679 55.8019 36.8066 55.2207 36.0814 54.4875C35.3562 53.7543 34.7814 52.8833 34.3902 51.9248C33.9989 50.9663 33.7988 49.939 33.8015 48.902V48.2989C33.7988 47.262 33.9989 46.2347 34.3902 45.2762C34.7814 44.3176 35.3562 43.4467 36.0814 42.7135C36.8066 41.9802 37.6679 41.3991 38.616 41.0035C39.564 40.6079 40.58 40.4056 41.6056 40.4083H42.202C43.2276 40.4056 44.2436 40.6079 45.1916 41.0035C46.1397 41.3991 47.001 41.9802 47.7262 42.7135C48.4514 43.4467 49.0262 44.3176 49.4174 45.2762C49.8087 46.2347 50.0088 47.262 50.0061 48.2989V48.902C50.0088 49.939 49.8087 50.9663 49.4174 51.9248C49.0262 52.8833 48.4514 53.7543 47.7262 54.4875C47.001 55.2207 46.1397 55.8019 45.1916 56.1975C44.2436 56.5931 43.2276 56.7954 42.202 56.7927V56.7927ZM42.202 89.2098H41.6056C40.2191 89.2056 38.8567 89.5761 37.6594 90.283C36.462 90.9899 35.4733 92.0076 34.7956 93.2305L41.9038 97.3518L49.012 93.2305C48.3343 92.0076 47.3456 90.9899 46.1483 90.283C44.9509 89.5761 43.5885 89.2056 42.202 89.2098V89.2098ZM83.7079 64.8342H83.4096C82.3841 64.8315 81.3681 65.0338 80.42 65.4294C79.472 65.825 78.6107 66.4061 77.8855 67.1394C77.1603 67.8726 76.5855 68.7435 76.1943 69.7021C75.803 70.6606 75.6029 71.6879 75.6056 72.7248V73.3279C75.5984 74.6675 75.9414 75.9852 76.5997 77.1476L83.7079 72.9761V64.8342V64.8342ZM76.5997 20.1036C75.9472 21.2685 75.6047 22.5845 75.6056 23.9233V24.5264C75.6029 25.5633 75.803 26.5906 76.1943 27.5492C76.5855 28.5077 77.1603 29.3786 77.8855 30.1119C78.6107 30.8451 79.472 31.4262 80.42 31.8218C81.3681 32.2174 82.3841 32.4197 83.4096 32.4171H83.7079V24.2248L76.5997 20.1036ZM41.9038 -0.150818L34.7956 3.97043C35.4701 5.19998 36.4568 6.2254 37.6538 6.94099C38.8508 7.65658 40.215 8.03644 41.6056 8.04141H42.202C43.5885 8.04563 44.9509 7.67511 46.1483 6.96819C47.3456 6.26128 48.3343 5.24367 49.012 4.02068L41.9038 -0.150818V-0.150818ZM7.2576 20.0533L0.149414 24.2248V32.4171H0.44766C1.47324 32.4197 2.48924 32.2174 3.43726 31.8218C4.38528 31.4262 5.24664 30.8451 5.97184 30.1119C6.69704 29.3786 7.27178 28.5077 7.66305 27.5492C8.05431 26.5906 8.25438 25.5633 8.25175 24.5264V23.9233C8.23491 22.571 7.89377 21.243 7.2576 20.0533V20.0533ZM0.44766 64.8342H0.149414V72.9761L7.2576 77.1476C7.91012 75.9828 8.25266 74.6667 8.25175 73.3279V72.7248C8.25438 71.6879 8.05431 70.6606 7.66305 69.7021C7.27178 68.7435 6.69704 67.8726 5.97184 67.1394C5.24664 66.4061 4.38528 65.825 3.43726 65.4294C2.48924 65.0338 1.47324 64.8315 0.44766 64.8342V64.8342Z" fill="#469EA2"/>
<path d="M41.9038 97.6031V48.8016L0.149414 24.4259V73.2275L41.9038 97.6031Z" fill="#083B54" fill-opacity="0.15"/>
<path d="M83.7075 72.7751V24.0238L41.9531 48.3995V97.201L83.7075 72.7751Z" fill="#083B54" fill-opacity="0.05"/>
</g>
<defs>
<clipPath id="clip0">
<rect width="85" height="97" fill="white"/>
</clipPath>
</defs>
</svg>
