<svg width="27" height="27" viewBox="0 0 27 27" fill="none" xmlns="http://www.w3.org/2000/svg">
<circle cx="13.5" cy="13.5" r="13.5" fill="url(#paint0_linear)"/>
<path d="M13.2656 18.0469C11.9976 18.0469 10.7814 17.5431 9.88477 16.6465C8.98811 15.7498 8.48438 14.5337 8.48438 13.2656C8.48438 11.9976 8.98811 10.7814 9.88477 9.88477C10.7814 8.98811 11.9976 8.48438 13.2656 8.48438C14.5337 8.48438 15.7498 8.98811 16.6465 9.88477C17.5431 10.7814 18.0469 11.9976 18.0469 13.2656C18.0469 14.5337 17.5431 15.7498 16.6465 16.6465C15.7498 17.5431 14.5337 18.0469 13.2656 18.0469ZM12.4688 4.5H14.0625V6.89062H12.4688V4.5ZM12.4688 19.6406H14.0625V22.0312H12.4688V19.6406ZM6.50414 7.63092L7.63092 6.50414L9.32109 8.19431L8.19431 9.32109L6.50414 7.63172V7.63092ZM17.2102 18.3369L18.3369 17.2102L20.0271 18.9003L18.9003 20.0271L17.2102 18.3369ZM18.9003 6.50334L20.0271 7.63092L18.3369 9.32109L17.2102 8.19431L18.9003 6.50414V6.50334ZM8.19431 17.2102L9.32109 18.3369L7.63092 20.0271L6.50414 18.9003L8.19431 17.2102ZM22.0312 12.4688V14.0625H19.6406V12.4688H22.0312ZM6.89062 12.4688V14.0625H4.5V12.4688H6.89062Z" fill="white"/>
<defs>
<linearGradient id="paint0_linear" x1="13.5" y1="0" x2="13.5" y2="27" gradientUnits="userSpaceOnUse">
<stop stop-color="#FFC700"/>
<stop offset="0.682515" stop-color="#FF9301"/>
<stop offset="1" stop-color="#FF7B01"/>
</linearGradient>
</defs>
</svg>
