<svg width="13" height="9" viewBox="0 0 13 9" fill="none" xmlns="http://www.w3.org/2000/svg">
<path d="M7.3037 4.50006C7.3037 6.46122 5.72465 8.05105 3.77691 8.05105C1.82917 8.05105 0.25 6.46122 0.25 4.50006C0.25 2.53889 1.82905 0.948944 3.77691 0.948944C5.72477 0.948944 7.3037 2.53889 7.3037 4.50006Z" fill="white"/>
<path d="M11.1578 4.4992C11.1578 6.34521 10.3682 7.8423 9.39432 7.8423C8.42038 7.8423 7.63086 6.34521 7.63086 4.4992C7.63086 2.65318 8.42026 1.1561 9.3942 1.1561C10.3681 1.1561 11.1576 2.6527 11.1576 4.4992" fill="white"/>
<path d="M12.7501 4.49954C12.7501 6.15312 12.4724 7.49443 12.1299 7.49443C11.7873 7.49443 11.5098 6.15348 11.5098 4.49954C11.5098 2.84561 11.7874 1.50465 12.1299 1.50465C12.4723 1.50465 12.7501 2.84549 12.7501 4.49954Z" fill="white"/>
</svg>
