<svg width="72" height="69" viewBox="0 0 72 69" fill="none" xmlns="http://www.w3.org/2000/svg">
<path d="M25.9455 3.25758C31.9409 -1.08586 40.0591 -1.08586 46.0545 3.25759L64.4476 16.5829C70.443 20.9263 72.9516 28.6253 70.6616 35.6531L63.6361 57.214C61.3461 64.2418 54.7782 69 47.3676 69H24.6324C17.2218 69 10.6539 64.2418 8.36393 57.2139L1.33838 35.6531C-0.951634 28.6253 1.55706 20.9263 7.55239 16.5829L25.9455 3.25758Z" fill="url(#paint0_radial)"/>
<path d="M41.75 32.6587C39.629 33.3657 36.8009 30.5377 37.5079 28.4166M38.3793 27.5452L33.8097 32.1148C31.8231 34.1014 30.4138 36.5906 29.7324 39.3162L29.5116 40.1994C29.4428 40.4746 29.692 40.7239 29.9672 40.6551L30.8504 40.4343C33.576 39.7529 36.0652 38.3435 38.0518 36.3569L42.6214 31.7873C43.184 31.2248 43.5 30.4618 43.5 29.6662C43.5 28.0096 42.157 26.6666 40.5004 26.6666C39.7048 26.6666 38.9419 26.9827 38.3793 27.5452Z" stroke="white" stroke-width="1.5"/>
<path d="M44.6663 45.3334H28.333" stroke="white" stroke-width="1.5" stroke-linecap="round" stroke-linejoin="round"/>
<defs>
<radialGradient id="paint0_radial" cx="0" cy="0" r="1" gradientUnits="userSpaceOnUse" gradientTransform="translate(38.2191) rotate(91.8418) scale(69.0362 71.0332)">
<stop stop-color="#31E7FA"/>
<stop offset="0.526042" stop-color="#4477FF"/>
<stop offset="1" stop-color="#DB74FF"/>
</radialGradient>
</defs>
</svg>
