<svg width="18" height="21" viewBox="0 0 18 21" fill="none" xmlns="http://www.w3.org/2000/svg">
<path d="M16.6416 4.76173C15.6295 4.53917 14.7139 4.00171 14.0263 3.22649C13.3386 2.45127 12.9142 1.47814 12.8139 0.446729V0H9.31118V13.8791C9.31189 14.4949 9.11882 15.0954 8.75931 15.5954C8.3998 16.0954 7.89208 16.4696 7.30807 16.665C6.72406 16.8604 6.09337 16.8671 5.50533 16.6842C4.91729 16.5012 4.40173 16.1379 4.03166 15.6457C3.70011 15.21 3.49709 14.6902 3.44556 14.1451C3.39402 13.6 3.49603 13.0513 3.74004 12.5612C3.98405 12.0711 4.36034 11.659 4.82634 11.3716C5.29234 11.0841 5.82947 10.9328 6.37698 10.9347C6.67978 10.933 6.98108 10.9775 7.27044 11.0667V7.51317C6.93371 7.47147 6.59437 7.4545 6.25515 7.46241C5.00564 7.49579 3.79298 7.89283 2.76567 8.60489C1.73836 9.31694 0.940991 10.3131 0.4712 11.4714C0.00140996 12.6298 -0.120409 13.8999 0.120661 15.1264C0.36173 16.3529 0.955225 17.4825 1.82847 18.3768C2.72344 19.2867 3.86869 19.91 5.11872 20.1676C6.36875 20.4251 7.66713 20.3052 8.84888 19.8232C10.0306 19.3411 11.0424 18.5187 11.7556 17.4603C12.4689 16.4019 12.8514 15.1553 12.8546 13.8791V6.77201C14.2673 7.78116 15.9614 8.32099 17.6975 8.31525V4.86326C17.3565 4.86466 17.0162 4.83064 16.6822 4.76173H16.6416Z" fill="white"/>
</svg>
