<svg width="34" height="28" viewBox="0 0 34 28" fill="none" xmlns="http://www.w3.org/2000/svg">
<path d="M34.0132 4.191C32.7727 4.73976 31.4571 5.10015 30.11 5.26025C31.5298 4.41108 32.5925 3.07465 33.1 1.5C31.7675 2.293 30.3066 2.84875 28.784 3.14938C27.7612 2.05507 26.4056 1.32932 24.9278 1.08495C23.45 0.840588 21.9329 1.0913 20.6123 1.79811C19.2917 2.50493 18.2416 3.62824 17.6253 4.99342C17.009 6.35859 16.861 7.88915 17.2042 9.34713C14.502 9.21169 11.8585 8.50948 9.44534 7.28608C7.03214 6.06269 4.9032 4.34546 3.19674 2.24588C2.59272 3.28336 2.2753 4.46275 2.27699 5.66325C2.27699 8.0195 3.47624 10.1011 5.29949 11.3199C4.22051 11.2859 3.16527 10.9945 2.22174 10.47V10.5545C2.22207 12.1238 2.76509 13.6446 3.75875 14.8592C4.7524 16.0738 6.13553 16.9074 7.67362 17.2186C6.67199 17.4901 5.62174 17.5301 4.60237 17.3356C5.03603 18.6864 5.88126 19.8677 7.01971 20.7142C8.15816 21.5607 9.53283 22.0299 10.9512 22.0563C9.54152 23.1634 7.92741 23.9818 6.20118 24.4648C4.47494 24.9477 2.67045 25.0857 0.890869 24.8708C3.99738 26.8686 7.61365 27.9292 11.3071 27.9258C23.8082 27.9258 30.6446 17.5696 30.6446 8.58825C30.6446 8.29575 30.6365 8 30.6235 7.71075C31.9541 6.74903 33.1026 5.55766 34.0149 4.19263L34.0132 4.191Z" fill="#05ABF6"/>
</svg>
