<svg width="60" height="60" viewBox="0 0 60 60" fill="none" xmlns="http://www.w3.org/2000/svg">
<path d="M30.0003 59.1673C46.1089 59.1673 59.1675 46.1086 59.1675 30C59.1675 13.8914 46.1089 0.832764 30.0003 0.832764C13.8916 0.832764 0.833008 13.8914 0.833008 30C0.833008 46.1086 13.8916 59.1673 30.0003 59.1673Z" fill="url(#paint0_linear)"/>
<path fill-rule="evenodd" clip-rule="evenodd" d="M31.7495 20.5203C31.7495 20.0557 31.5649 19.6101 31.2364 19.2816C30.9079 18.9531 30.4623 18.7686 29.9977 18.7686C29.5331 18.7686 29.0876 18.9531 28.7591 19.2816C28.4305 19.6101 28.246 20.0557 28.246 20.5203V28.2466H20.5215C20.0574 28.2466 19.6122 28.4309 19.284 28.7591C18.9559 29.0873 18.7715 29.5324 18.7715 29.9966C18.7715 30.4607 18.9559 30.9058 19.284 31.234C19.6122 31.5622 20.0574 31.7466 20.5215 31.7466H28.246V39.4711C28.246 39.9352 28.4304 40.3803 28.7585 40.7085C29.0867 41.0367 29.5319 41.2211 29.996 41.2211C30.4601 41.2211 30.9052 41.0367 31.2334 40.7085C31.5616 40.3803 31.746 39.9352 31.746 39.4711V31.7448H39.474C39.7102 31.7554 39.946 31.718 40.1673 31.6349C40.3886 31.5518 40.5908 31.4247 40.7617 31.2614C40.9325 31.098 41.0685 30.9017 41.1614 30.6843C41.2543 30.4669 41.3022 30.233 41.3022 29.9966C41.3022 29.7602 41.2543 29.5262 41.1614 29.3088C41.0685 29.0914 40.9325 28.8951 40.7617 28.7318C40.5908 28.5684 40.3886 28.4413 40.1673 28.3582C39.946 28.2751 39.7102 28.2377 39.474 28.2483H31.7477V20.5203H31.7495Z" fill="#566FFE"/>
<defs>
<linearGradient id="paint0_linear" x1="-41.8184" y1="-11.1444" x2="-11.6433" y2="84.6465" gradientUnits="userSpaceOnUse">
<stop stop-color="#36FDDE"/>
<stop offset="0.561" stop-color="#F4FDD0"/>
<stop offset="0.975" stop-color="#F5DAF8"/>
<stop offset="1" stop-color="#F5D8FA"/>
</linearGradient>
</defs>
</svg>
