<svg width="70" height="70" viewBox="0 0 70 70" fill="none" xmlns="http://www.w3.org/2000/svg">
<path fill-rule="evenodd" clip-rule="evenodd" d="M36.4891 23.8316C36.4891 18.4859 40.8227 14.1523 46.1684 14.1523C51.514 14.1523 55.8476 18.4859 55.8476 23.8316C55.8476 29.1773 51.514 33.5108 46.1684 33.5108C40.8227 33.5108 36.4891 29.1773 36.4891 23.8316ZM46.1684 18.6197C43.2899 18.6197 40.9565 20.9531 40.9565 23.8316C40.9565 26.71 43.2899 29.0435 46.1684 29.0435C49.0468 29.0435 51.3802 26.71 51.3802 23.8316C51.3802 20.9531 49.0468 18.6197 46.1684 18.6197ZM67.1203 51.296C67.7605 49.776 68.2789 48.1903 68.6634 46.551C70.4455 38.9534 70.4455 31.0466 68.6634 23.449C66.0898 12.4772 57.5229 3.91025 46.551 1.33661C38.9534 -0.445536 31.0466 -0.445535 23.449 1.33661C12.4772 3.91025 3.91026 12.4772 1.33661 23.449C-0.445537 31.0466 -0.445537 38.9535 1.33661 46.551C1.52557 47.3566 1.74685 48.1492 1.99901 48.9274L4.34708 46.5798C12.8394 38.0891 26.6081 38.0891 35.1005 46.5798L41.6753 53.1534L43.399 51.4301C50.0028 44.8276 60.6034 44.905 67.1203 51.296ZM64.9485 55.5337L64.8529 55.419C60.1847 49.8183 51.7138 49.434 46.5575 54.5893L44.8345 56.312L54.2196 65.6952C58.5592 63.2765 62.2193 59.8057 64.8642 55.6188C64.893 55.5909 64.9211 55.5626 64.9485 55.5337ZM49.8806 67.6742L31.9419 49.739C25.1941 42.9925 14.2535 42.9925 7.50565 49.739L3.85759 53.3864C7.78449 60.993 14.884 66.6543 23.449 68.6634C31.0466 70.4455 38.9534 70.4455 46.551 68.6634C47.688 68.3967 48.7992 68.0656 49.8806 67.6742Z" fill="url(#paint0_linear)"/>
<defs>
<linearGradient id="paint0_linear" x1="-51.1807" y1="-14.3724" x2="-14.9712" y2="100.574" gradientUnits="userSpaceOnUse">
<stop stop-color="#36FDDE"/>
<stop offset="0.561" stop-color="#F4FDD0"/>
<stop offset="0.975" stop-color="#F5DAF8"/>
<stop offset="1" stop-color="#F5D8FA"/>
</linearGradient>
</defs>
</svg>
