<svg width="343" height="275" viewBox="0 0 343 275" fill="none" xmlns="http://www.w3.org/2000/svg">
<path d="M85.7016 208.057H-23.9497L-46.4129 269.675H-102L1.55949 0H62.4768L165.275 269.675H108.165L85.7016 208.057ZM-6.43591 160.131H68.1878L30.876 58.195L-6.43591 160.131Z" fill="#E6EDF0"/>
<path d="M175.097 218.707C175.097 210.339 176.493 202.985 179.285 196.646C182.331 190.053 186.392 184.348 191.468 179.53C196.545 174.712 202.382 170.908 208.982 168.119C215.835 165.33 223.196 163.301 231.064 162.033L277.133 155.187C282.463 154.426 286.144 152.905 288.174 150.622C290.205 148.087 291.22 145.171 291.22 141.874C291.22 135.281 288.555 129.576 283.225 124.758C278.148 119.94 270.28 117.531 259.619 117.531C248.451 117.531 239.821 120.574 233.729 126.66C227.892 132.745 224.592 139.846 223.83 147.96L178.904 138.451C179.665 131.097 181.95 123.744 185.757 116.39C189.564 109.036 194.768 102.444 201.367 96.6113C207.967 90.7792 216.089 86.0881 225.734 82.538C235.379 78.7344 246.548 76.8326 259.239 76.8326C273.96 76.8326 286.525 78.8612 296.931 82.9184C307.338 86.722 315.714 91.9202 322.06 98.5131C328.659 104.852 333.355 112.333 336.147 120.954C339.193 129.576 340.716 138.578 340.716 147.96V240.007C340.716 245.078 340.969 250.53 341.477 256.362C341.985 261.941 342.492 266.379 343 269.675H296.551C296.043 267.139 295.535 263.716 295.028 259.405C294.774 254.841 294.647 250.784 294.647 247.234C289.824 254.587 282.844 261.053 273.707 266.632C264.823 272.211 253.401 275 239.441 275C229.541 275 220.531 273.352 212.408 270.055C204.54 267.012 197.814 262.955 192.23 257.884C186.646 252.559 182.331 246.6 179.285 240.007C176.493 233.16 175.097 226.06 175.097 218.707ZM250.101 237.344C255.431 237.344 260.508 236.71 265.33 235.443C270.407 233.921 274.849 231.512 278.656 228.216C282.463 224.666 285.509 220.228 287.794 214.903C290.078 209.325 291.22 202.351 291.22 193.983V185.615L248.959 192.082C242.359 193.096 236.775 195.505 232.207 199.308C227.892 202.858 225.734 208.31 225.734 215.664C225.734 221.243 227.765 226.314 231.826 230.878C235.887 235.189 241.979 237.344 250.101 237.344Z" fill="#E6EDF0"/>
</svg>
