<svg width="165" height="31" viewBox="0 0 165 31" fill="none" xmlns="http://www.w3.org/2000/svg">
<g clip-path="url(#clip0)">
<path d="M51.0801 17.7657C50.0774 21.757 47.7376 25.9583 44.3951 29.8596C40.4752 23.8277 35.279 18.9361 28.6547 15.3049C32.3619 11.7938 36.4945 9.21295 40.4144 7.95254C44.4254 6.63211 47.7984 6.9022 49.7127 8.70278C51.6271 10.4433 52.0829 13.7744 51.0801 17.7657ZM9.72379 4.1113C6.83705 5.64179 4.13263 7.59242 1.73208 9.9932C-0.0911248 11.7938 -0.486152 15.1549 0.668544 19.1462C1.82324 23.0774 4.28457 27.2488 7.71827 31L22.9724 15.9351L23.0028 15.9051L24.5829 14.3446C25.0995 13.8344 25.6464 13.3543 26.163 12.8441C30.5387 8.91285 35.4614 6.06193 40.1713 4.71149C41.0221 4.47142 41.8426 4.26135 42.6326 4.14131C32.4227 -1.38047 19.9337 -1.38047 9.72379 4.1113ZM112.887 9.90317C113.343 8.25264 114.345 7.11227 115.713 6.48207C116.959 5.88187 119.42 5.61178 122.064 5.61178H129.326C129.508 5.61178 129.63 5.73182 129.63 5.91188V8.97287C129.63 9.15293 129.508 9.27297 129.326 9.27297H122.762C120.21 9.27297 119.055 9.51304 118.539 9.72311C117.931 9.96319 117.536 10.5934 117.293 11.4337C117.05 12.424 116.928 14.2846 116.928 16.8954C116.928 19.5063 117.05 21.4569 117.293 22.4472C117.506 23.2875 117.901 23.8877 118.539 24.1278C119.055 24.3378 120.24 24.5179 122.762 24.5179H129.539C129.721 24.5179 129.843 24.6379 129.843 24.818V27.879C129.843 28.059 129.721 28.1791 129.539 28.1791H129.083C129.022 28.1791 122.884 28.1791 122.064 28.1791C119.42 28.1791 117.08 27.879 115.804 27.3088C114.436 26.6786 113.343 25.5382 112.887 23.8877C112.492 22.3872 112.188 20.1065 112.188 16.8954C112.157 13.7144 112.431 11.4037 112.887 9.90317ZM84.0498 17.7657C83.6851 16.8054 82.9558 16.2352 82.105 15.8451C81.3453 15.515 80.1299 15.2749 78.8536 15.1549L72.5332 14.5847C71.6216 14.4946 71.2569 14.3446 71.0746 14.2846C70.8923 14.2246 70.8011 14.0745 70.7708 13.9245C70.71 13.7144 70.6492 12.9942 70.6492 12.0939C70.6492 11.2536 70.71 10.8335 70.7708 10.5934C70.8011 10.4734 70.8923 10.0532 71.2569 9.84315L71.2873 9.81314C71.5912 9.63308 72.047 9.51304 72.6243 9.42301C73.2017 9.33299 75.268 9.30298 76.5442 9.30298C77.5166 9.30298 82.7735 9.30298 82.7735 9.30298H83.2597C83.442 9.30298 83.5636 9.18294 83.5636 9.00288V5.91188C83.5636 5.73182 83.442 5.61178 83.2597 5.61178H82.7735C82.7127 5.61178 76.0277 5.58178 74.873 5.58178C73.0498 5.58178 71.1658 5.70181 70.0719 6.03192C68.8564 6.36203 67.7017 7.02224 67.0332 8.01256C66.3647 8.97287 65.9393 10.3233 65.9393 12.1239C65.9393 13.3843 66.152 14.2546 66.3647 15.0648C66.6382 15.9651 67.2459 16.5653 68.0359 17.1355C68.7956 17.6757 70.0415 18.0058 71.4393 18.1258L77.8205 18.696C78.9144 18.786 79.3094 18.9361 79.4917 18.9961C79.6741 19.0861 79.7652 19.2062 79.7956 19.3562C79.8564 19.5963 79.9172 20.2565 79.9172 21.3669C79.9172 22.0571 79.8564 22.8373 79.7348 23.2275C79.6741 23.4976 79.5221 23.7076 79.279 23.8277C78.9144 24.0377 78.4586 24.1578 77.9116 24.2178C77.4558 24.2778 75.2376 24.3078 74.1133 24.3378H66.8812C66.6989 24.3378 66.5774 24.4579 66.5774 24.6379V27.6989C66.5774 27.879 66.6989 27.999 66.8812 27.999H67.3371C67.3978 27.999 74.9945 28.029 76.0884 28.029C77.8205 28.029 79.5829 27.909 80.5857 27.6389C81.71 27.3388 82.8343 26.6786 83.5028 25.6282C84.1409 24.6379 84.5663 23.1374 84.5663 21.1868C84.6271 19.6263 84.3536 18.576 84.0498 17.7657ZM107.478 8.97287V5.91188C107.478 5.73182 107.356 5.61178 107.174 5.61178H92.8923C91.4034 5.61178 90.2183 6.78216 90.2183 8.25264V25.8383C90.2183 27.0987 91.2818 28.1491 92.558 28.1491H107.174C107.356 28.1491 107.478 28.029 107.478 27.849V24.818C107.478 24.6379 107.356 24.5179 107.174 24.5179H95.1409C94.9586 24.5179 94.8371 24.3978 94.8371 24.2178V18.1558C94.8371 18.1258 94.8674 18.0958 94.8978 18.0958H103.71C103.892 18.0958 104.014 17.9758 104.014 17.7957V14.9448C104.014 14.7647 103.892 14.6447 103.71 14.6447H94.8978C94.8674 14.6447 94.8371 14.6147 94.8371 14.5847V9.51304C94.8371 9.33299 94.9586 9.21295 95.1409 9.21295H107.174C107.356 9.27297 107.478 9.15293 107.478 8.97287ZM154.425 9.00288V5.9719C154.425 5.79184 154.304 5.6718 154.122 5.6718H138.533C137.075 5.6718 135.89 6.84218 135.89 8.28265V27.879C135.89 28.059 136.011 28.1791 136.193 28.1791H139.992C140.174 28.1791 140.296 28.059 140.296 27.879V18.5159C140.296 18.3359 140.417 18.2459 140.569 18.2459H150.262C150.445 18.2459 150.566 18.1258 150.566 17.9458V14.9748C150.566 14.7947 150.445 14.6747 150.262 14.6747H140.296V9.54305C140.296 9.36299 140.417 9.24296 140.599 9.24296H154.152C154.304 9.27297 154.425 9.15293 154.425 9.00288ZM164.453 28.1491H160.564C160.381 28.1491 160.26 28.029 160.26 27.849V6.06193C160.26 5.88187 160.381 5.76183 160.564 5.76183H164.453C164.635 5.76183 164.757 5.88187 164.757 6.06193V27.849C164.757 28.029 164.605 28.1491 164.453 28.1491Z" fill="black"/>
</g>
<defs>
<clipPath id="clip0">
<rect width="165" height="31" fill="white"/>
</clipPath>
</defs>
</svg>
