<svg width="114" height="36" viewBox="0 0 114 36" fill="none" xmlns="http://www.w3.org/2000/svg">
<path d="M50.064 20.4445H48.336V26.9965H45V9.98047H51.648C52.48 9.98047 53.224 10.1165 53.88 10.3885C54.552 10.6605 55.12 11.0285 55.584 11.4925C56.064 11.9565 56.432 12.5085 56.688 13.1485C56.944 13.7885 57.072 14.4765 57.072 15.2125C57.072 16.4125 56.744 17.4365 56.088 18.2845C55.448 19.1325 54.568 19.7165 53.448 20.0365L57.096 26.9965H53.4L50.064 20.4445ZM51.024 17.5885C51.872 17.5885 52.528 17.3725 52.992 16.9405C53.456 16.5085 53.688 15.9405 53.688 15.2365C53.688 14.5165 53.456 13.9405 52.992 13.5085C52.528 13.0765 51.872 12.8605 51.024 12.8605H48.336V17.5885H51.024Z" fill="#183B56"/>
<path d="M58.8525 23.4445C58.8525 22.9165 58.9405 22.4525 59.1165 22.0525C59.3085 21.6365 59.5645 21.2765 59.8845 20.9725C60.2045 20.6685 60.5725 20.4285 60.9885 20.2525C61.4205 20.0765 61.8845 19.9485 62.3805 19.8685L65.2845 19.4365C65.6205 19.3885 65.8525 19.2925 65.9805 19.1485C66.1085 18.9885 66.1725 18.8045 66.1725 18.5965C66.1725 18.1805 66.0045 17.8205 65.6685 17.5165C65.3485 17.2125 64.8525 17.0605 64.1805 17.0605C63.4765 17.0605 62.9325 17.2525 62.5485 17.6365C62.1805 18.0205 61.9725 18.4685 61.9245 18.9805L59.0925 18.3805C59.1405 17.9165 59.2845 17.4525 59.5245 16.9885C59.7645 16.5245 60.0925 16.1085 60.5085 15.7405C60.9245 15.3725 61.4365 15.0765 62.0445 14.8525C62.6525 14.6125 63.3565 14.4925 64.1565 14.4925C65.0845 14.4925 65.8765 14.6205 66.5325 14.8765C67.1885 15.1165 67.7165 15.4445 68.1165 15.8605C68.5325 16.2605 68.8285 16.7325 69.0045 17.2765C69.1965 17.8205 69.2925 18.3885 69.2925 18.9805V24.7885V25.8205C69.2925 25.8205 69.3085 26.7885 69.3405 26.9965H66.5085C66.4765 26.8365 66.4445 26.2845 66.4125 26.0125C66.3965 25.7245 66.3885 25.4685 66.3885 25.2445C66.0845 25.7085 65.6445 26.1165 65.0685 26.4685C64.5085 26.8205 63.7885 26.9965 62.9085 26.9965C62.2845 26.9965 61.7165 26.8925 61.2045 26.6845C60.7085 26.4925 60.2845 26.2365 59.9325 25.9165C59.5805 25.5805 59.3085 25.2045 59.1165 24.7885C58.9405 24.3565 58.8525 23.9085 58.8525 23.4445ZM63.5805 24.6205C63.9165 24.6205 64.2365 24.5805 64.5405 24.5005C64.8605 24.4045 65.1405 24.2525 65.3805 24.0445C65.6205 23.8205 65.8125 23.5405 65.9565 23.2045C66.1005 22.8525 66.1725 22.4125 66.1725 21.8845V21.3565L63.5085 21.7645C63.0925 21.8285 62.7405 21.9805 62.4525 22.2205C62.1805 22.4445 62.0445 22.7885 62.0445 23.2525C62.0445 23.6045 62.1725 23.9245 62.4285 24.2125C62.6845 24.4845 63.0685 24.6205 63.5805 24.6205Z" fill="#183B56"/>
<path d="M79.71 18.0205C79.39 17.9565 79.07 17.9245 78.75 17.9245C78.334 17.9245 77.942 17.9805 77.574 18.0925C77.206 18.2045 76.886 18.3885 76.614 18.6445C76.342 18.9005 76.118 19.2445 75.942 19.6765C75.782 20.0925 75.702 20.6205 75.702 21.2605V26.9965H72.51V14.8525H75.606V16.6045C75.782 16.2205 76.006 15.9085 76.278 15.6685C76.566 15.4125 76.862 15.2205 77.166 15.0925C77.486 14.9645 77.798 14.8765 78.102 14.8285C78.422 14.7805 78.71 14.7565 78.966 14.7565C79.094 14.7565 79.214 14.7645 79.326 14.7805C79.454 14.7805 79.582 14.7885 79.71 14.8045V18.0205Z" fill="#183B56"/>
<path d="M87.1421 24.1165C87.5261 24.1165 87.9021 24.0445 88.2701 23.9005C88.6381 23.7565 88.9581 23.5485 89.2301 23.2765C89.5021 22.9885 89.7181 22.6365 89.8781 22.2205C90.0541 21.8045 90.1421 21.3165 90.1421 20.7565C90.1421 20.1965 90.0541 19.7085 89.8781 19.2925C89.7181 18.8765 89.5021 18.5325 89.2301 18.2605C88.9581 17.9725 88.6381 17.7565 88.2701 17.6125C87.9021 17.4685 87.5261 17.3965 87.1421 17.3965C86.7581 17.3965 86.3821 17.4685 86.0141 17.6125C85.6461 17.7565 85.3261 17.9725 85.0541 18.2605C84.7821 18.5325 84.5581 18.8765 84.3821 19.2925C84.2221 19.7085 84.1421 20.1965 84.1421 20.7565C84.1421 21.3165 84.2221 21.8045 84.3821 22.2205C84.5581 22.6365 84.7821 22.9885 85.0541 23.2765C85.3261 23.5485 85.6461 23.7565 86.0141 23.9005C86.3821 24.0445 86.7581 24.1165 87.1421 24.1165ZM87.1421 14.4925C88.0221 14.4925 88.8381 14.6525 89.5901 14.9725C90.3581 15.2765 91.0141 15.7085 91.5581 16.2685C92.1181 16.8125 92.5501 17.4685 92.8541 18.2365C93.1741 19.0045 93.3341 19.8445 93.3341 20.7565C93.3341 21.6685 93.1741 22.5085 92.8541 23.2765C92.5501 24.0285 92.1181 24.6845 91.5581 25.2445C91.0141 25.8045 90.3581 26.2445 89.5901 26.5645C88.8381 26.8685 88.0221 27.0205 87.1421 27.0205C86.2621 27.0205 85.4381 26.8685 84.6701 26.5645C83.9181 26.2445 83.2621 25.8045 82.7021 25.2445C82.1581 24.6845 81.7261 24.0285 81.4061 23.2765C81.1021 22.5085 80.9501 21.6685 80.9501 20.7565C80.9501 19.8445 81.1021 19.0045 81.4061 18.2365C81.7261 17.4685 82.1581 16.8125 82.7021 16.2685C83.2621 15.7085 83.9181 15.2765 84.6701 14.9725C85.4381 14.6525 86.2621 14.4925 87.1421 14.4925Z" fill="#183B56"/>
<path d="M95.8538 27.0205V15.2125H99.0458V27.0205H95.8538Z" fill="#183B56"/>
<path d="M105.655 27.0205H102.463V15.2125H105.559V16.6765C105.927 16.0685 106.423 15.6205 107.047 15.3325C107.687 15.0445 108.327 14.9005 108.967 14.9005C109.703 14.9005 110.335 15.0285 110.863 15.2845C111.407 15.5245 111.855 15.8525 112.207 16.2685C112.559 16.6845 112.815 17.1805 112.975 17.7565C113.151 18.3325 113.239 18.9405 113.239 19.5805V27.0205H110.047V20.1325C110.047 19.4605 109.871 18.9005 109.519 18.4525C109.183 18.0045 108.631 17.7805 107.863 17.7805C107.159 17.7805 106.615 18.0205 106.231 18.5005C105.847 18.9645 105.655 19.5405 105.655 20.2285V27.0205Z" fill="#183B56"/>
<path d="M12.7524 2.29765C15.757 0.11465 19.8256 0.114652 22.8302 2.29765L32.0482 8.99489C35.0528 11.1779 36.3101 15.0473 35.1624 18.5795L31.6415 29.4159C30.4938 32.948 27.2022 35.3395 23.4883 35.3395H12.0943C8.38033 35.3395 5.08878 32.948 3.94111 29.4159L0.420164 18.5795C-0.727505 15.0473 0.529758 11.1779 3.5344 8.99489L12.7524 2.29765Z" fill="url(#paint0_radial)"/>
<g filter="url(#filter0_ii)">
<path d="M11.0579 11.7815H23.7922C26.3173 11.7815 28.3643 13.8285 28.3643 16.3536C28.3643 18.8787 26.3173 20.9258 23.7922 20.9258H6.0752L11.0579 11.7815Z" fill="white"/>
</g>
<path d="M6.0752 20.9258H23.7433L26.6498 28.3555L6.0752 20.9258Z" fill="url(#paint1_linear)"/>
<defs>
<filter id="filter0_ii" x="6.0752" y="9.78149" width="22.2891" height="13.1443" filterUnits="userSpaceOnUse" color-interpolation-filters="sRGB">
<feFlood flood-opacity="0" result="BackgroundImageFix"/>
<feBlend mode="normal" in="SourceGraphic" in2="BackgroundImageFix" result="shape"/>
<feColorMatrix in="SourceAlpha" type="matrix" values="0 0 0 0 0 0 0 0 0 0 0 0 0 0 0 0 0 0 127 0" result="hardAlpha"/>
<feOffset dy="3"/>
<feGaussianBlur stdDeviation="1"/>
<feComposite in2="hardAlpha" operator="arithmetic" k2="-1" k3="1"/>
<feColorMatrix type="matrix" values="0 0 0 0 0.227451 0 0 0 0 0.705883 0 0 0 0 0.992157 0 0 0 0.16 0"/>
<feBlend mode="normal" in2="shape" result="effect1_innerShadow"/>
<feColorMatrix in="SourceAlpha" type="matrix" values="0 0 0 0 0 0 0 0 0 0 0 0 0 0 0 0 0 0 127 0" result="hardAlpha"/>
<feOffset dy="-2"/>
<feGaussianBlur stdDeviation="2"/>
<feComposite in2="hardAlpha" operator="arithmetic" k2="-1" k3="1"/>
<feColorMatrix type="matrix" values="0 0 0 0 0.658824 0 0 0 0 0.458824 0 0 0 0 1 0 0 0 0.16 0"/>
<feBlend mode="normal" in2="effect1_innerShadow" result="effect2_innerShadow"/>
</filter>
<radialGradient id="paint0_radial" cx="0" cy="0" r="1" gradientUnits="userSpaceOnUse" gradientTransform="translate(18.9034 0.660402) rotate(91.8365) scale(34.6972 35.5993)">
<stop stop-color="#31E7FA"/>
<stop offset="0.526042" stop-color="#4477FF"/>
<stop offset="1" stop-color="#DB74FF"/>
</radialGradient>
<linearGradient id="paint1_linear" x1="16.3625" y1="20.9258" x2="16.3625" y2="28.3555" gradientUnits="userSpaceOnUse">
<stop stop-color="white" stop-opacity="0.6"/>
<stop offset="1" stop-color="white"/>
</linearGradient>
</defs>
</svg>
