<svg width="856" height="678" viewBox="0 0 856 678" fill="none" xmlns="http://www.w3.org/2000/svg">
<path d="M339.138 -209.073C347.975 -213.771 381.166 -225.169 390.878 -206.905C400.59 -188.642 372.729 -167.454 363.251 -162.415C353.773 -157.376 338.338 -157.846 329.58 -174.316C320.821 -190.786 330.301 -204.375 339.138 -209.073ZM437.657 -29.4314C446.495 -34.1296 479.685 -45.5268 489.397 -27.2633C499.109 -8.99983 471.249 12.1876 461.771 17.2268C452.293 22.2656 436.857 21.7954 428.099 5.32571C419.341 -11.1443 428.82 -24.7332 437.657 -29.4314ZM428.106 677.124C370.47 677.124 314.493 665.846 261.72 643.647C210.794 622.16 165.107 591.535 125.923 552.522C86.6824 513.452 55.8669 467.945 34.3428 417.26C12.0463 364.773 0.71875 309.021 0.71875 251.617C0.71875 194.214 12.0463 138.462 34.3428 85.937C55.9046 35.2702 86.6824 -10.2548 125.923 -49.2683C165.126 -88.3006 210.812 -118.982 261.72 -140.431C274.913 -145.948 288.804 -148.8 303.034 -148.8C345.742 -148.8 384.135 -123.467 400.796 -84.2657C423.601 -30.6342 398.27 31.4985 344.404 54.2044C318.828 64.9572 295.796 80.4199 275.987 100.124C256.178 119.884 240.648 142.796 229.83 168.261C218.634 194.626 212.999 222.662 212.999 251.617C212.999 280.572 218.634 308.608 229.83 334.955C240.648 360.457 256.178 383.351 275.987 403.073C295.758 422.796 318.79 438.258 344.404 449.049C370.866 460.176 399.024 465.787 428.106 465.787C457.206 465.787 485.364 460.176 511.845 449.049C537.44 438.258 560.453 422.796 580.243 403.073C600.014 383.37 615.563 360.476 626.401 334.955C637.596 308.571 643.269 280.554 643.269 251.617C643.269 193.351 690.859 145.949 749.381 145.949C807.884 145.949 855.493 193.351 855.493 251.617C855.493 309.021 844.184 364.773 821.85 417.26C800.364 467.945 769.548 513.452 730.326 552.522C691.123 591.535 645.399 622.16 594.511 643.647C541.737 665.846 485.741 677.124 428.106 677.124ZM444.012 -109.273C453.873 -114.515 494.467 -129.125 505.304 -108.746C516.141 -88.3669 481.495 -62.8329 470.919 -57.2101C460.343 -51.5874 443.119 -52.1121 433.347 -70.4897C423.574 -88.8673 434.151 -104.03 444.012 -109.273ZM406.471 -176.534C416.332 -181.777 455.958 -195.871 466.795 -175.492C477.631 -155.113 443.953 -130.094 433.378 -124.472C422.802 -118.849 405.579 -119.373 395.806 -137.751C386.033 -156.129 396.61 -171.292 406.471 -176.534Z" fill="url(#paint0_linear)" fill-opacity="0.2"/>
<defs>
<linearGradient id="paint0_linear" x1="-55.5545" y1="173.072" x2="916.538" y2="78.8037" gradientUnits="userSpaceOnUse">
<stop stop-color="#ED3984"/>
<stop offset="0.327193" stop-color="#DC3AD3" stop-opacity="0.69"/>
<stop offset="0.963542" stop-color="#2C65FF" stop-opacity="0"/>
</linearGradient>
</defs>
</svg>
