<?xml version="1.0" standalone="no"?>
<!DOCTYPE svg PUBLIC "-//W3C//DTD SVG 1.1//EN" "http://www.w3.org/Graphics/SVG/1.1/DTD/svg11.dtd" >
<svg xmlns="http://www.w3.org/2000/svg" xmlns:xlink="http://www.w3.org/1999/xlink" version="1.1">
<metadata>
Created by FontForge 20170731 at Mon Nov 25 05:52:29 2013
 By Aleksey,,,
copyright missing
</metadata>
<defs>
<font id="CircularStd-Regular" horiz-adv-x="1071" >
  <font-face 
    font-family="Circular Std"
    font-weight="400"
    font-stretch="normal"
    units-per-em="2048"
    panose-1="0 0 5 0 0 0 0 0 0 0"
    ascent="1657"
    descent="-391"
    x-height="985"
    cap-height="1452"
    bbox="-92 -475 2228 1812"
    underline-thickness="102"
    underline-position="-419"
    unicode-range="U+000D-FB04"
  />
<missing-glyph horiz-adv-x="748" 
d="M68 0v1365h544v-1365h-544zM136 68h408v1229h-408v-1229z" />
    <glyph glyph-name=".notdef" horiz-adv-x="748" 
d="M68 0v1365h544v-1365h-544zM136 68h408v1229h-408v-1229z" />
    <glyph glyph-name="glyph1" horiz-adv-x="0" 
 />
    <glyph glyph-name="glyph1" horiz-adv-x="0" 
 />
    <glyph glyph-name="uni000D" unicode="&#xd;" horiz-adv-x="512" 
 />
    <glyph glyph-name="space" unicode=" " horiz-adv-x="512" 
 />
    <glyph glyph-name="exclam" unicode="!" horiz-adv-x="636" 
d="M184 123q0 -55 39 -94t94 -39q56 0 96 39t40 94t-40 95t-96 40q-55 0 -94 -39.5t-39 -95.5zM197 1452l53 -1036h137l51 1036h-241z" />
    <glyph glyph-name="quotedbl" unicode="&#x22;" horiz-adv-x="765" 
d="M82 1227q0 -11 4 -39l84 -383h70l86 385q4 28 4 37q0 55 -34.5 90t-88.5 35q-55 0 -90 -35t-35 -90zM436 1227q0 -11 4 -39l84 -383h70l86 385q4 28 4 37q0 55 -34.5 90t-88.5 35q-55 0 -90 -35t-35 -90z" />
    <glyph glyph-name="numbersign" unicode="#" horiz-adv-x="1511" 
d="M102 346h258l-73 -346h172l73 346h291l-73 -346h172l73 346h314v156h-279l70 327h309v156h-276l73 342h-172l-73 -342h-291l73 342h-172l-73 -342h-295v-156h262l-70 -327h-293v-156zM567 502l70 327h291l-70 -327h-291z" />
    <glyph glyph-name="dollar" unicode="$" horiz-adv-x="1218" 
d="M102 379q20 -157 138.5 -272t308.5 -134v-213h160v213q182 23 288.5 131t106.5 258q0 140 -99.5 244.5t-265.5 136.5l-30 7v419q82 -24 134.5 -85.5t63.5 -133.5l185 68q-33 132 -127.5 222t-255.5 112v217h-160v-215q-171 -20 -281 -130.5t-110 -258.5
q0 -147 89.5 -243.5t250.5 -129.5l51 -10v-428q-111 20 -176 97.5t-76 188.5zM360 973q0 75 51 130.5t138 72.5v-390q-189 38 -189 187zM709 154v395q94 -23 144 -75.5t50 -121.5q0 -75 -49.5 -127.5t-144.5 -70.5z" />
    <glyph glyph-name="percent" unicode="%" horiz-adv-x="1673" 
d="M113 1020q0 -134 96.5 -229t230.5 -95t232 95t98 229q0 133 -98 227t-232 94t-230.5 -94t-96.5 -227zM276 0h189l950 1327h-184zM283 1020q0 70 45 115t112 45q68 0 113 -45.5t45 -114.5t-45.5 -115.5t-112.5 -46.5t-112 46.5t-45 115.5zM924 307q0 -134 96.5 -228.5
t230.5 -94.5q135 0 232.5 94.5t97.5 228.5q0 133 -98 227.5t-232 94.5t-230.5 -94.5t-96.5 -227.5zM1094 307q0 70 45 115t112 45q68 0 113 -45.5t45 -114.5t-45.5 -115.5t-112.5 -46.5t-112 46.5t-45 115.5z" />
    <glyph glyph-name="ampersand" unicode="&#x26;" horiz-adv-x="1427" 
d="M143 346q0 -155 115.5 -263t304.5 -108q214 0 408 218l184 -193h272l-329 340l196 227v264l-323 -360l-271 281l74 55q205 150 205 321q0 158 -108 256.5t-277 98.5q-153 0 -264 -101t-111 -262q0 -65 35 -133q22 -45 43.5 -77t37 -50t58.5 -63l27 -29l-21 -16
q-138 -104 -197 -192.5t-59 -213.5zM350 362q0 126 123 220l74 55l295 -309l-6 -9q-72 -82 -135.5 -120.5t-135.5 -38.5q-91 0 -153 61t-62 141zM418 1133q0 79 53 128.5t125 49.5q79 0 131.5 -51t52.5 -125q0 -101 -108 -181l-99 -73l-45 49q-110 113 -110 203z" />
    <glyph glyph-name="quotesingle" unicode="'" horiz-adv-x="411" 
d="M82 1227q0 -11 4 -39l84 -383h70l86 385q4 28 4 37q0 55 -34.5 90t-88.5 35q-55 0 -90 -35t-35 -90z" />
    <glyph glyph-name="parenleft" unicode="(" horiz-adv-x="618" 
d="M113 649q0 -582 389 -977l116 103q-339 379 -339 874q0 496 339 875l-116 102q-389 -395 -389 -977z" />
    <glyph glyph-name="parenright" unicode=")" horiz-adv-x="618" 
d="M0 -225l117 -103q389 395 389 977t-389 977l-117 -102q340 -380 340 -875q0 -494 -340 -874z" />
    <glyph glyph-name="asterisk" unicode="*" horiz-adv-x="901" 
d="M72 1116l254 -84l-162 -213l125 -94l160 221l169 -223l125 94l-168 215l254 84l-47 148l-252 -86v274h-161v-276l-250 88z" />
    <glyph glyph-name="plus" unicode="+" horiz-adv-x="1161" 
d="M113 508h383v-404h168v404h385v162h-385v399h-168v-399h-383v-162z" />
    <glyph glyph-name="comma" unicode="," horiz-adv-x="602" 
d="M143 131q0 -62 38.5 -100.5t99.5 -38.5q28 0 45 10q-2 -76 -50 -140t-120 -81v-107q125 15 214 120.5t89 279.5q0 90 -47.5 142t-118.5 52q-62 0 -106 -40.5t-44 -96.5z" />
    <glyph glyph-name="hyphen" unicode="-" horiz-adv-x="739" 
d="M92 504h555v168h-555v-168z" />
    <glyph glyph-name="period" unicode="." horiz-adv-x="571" 
d="M143 131q0 -59 41 -100t101 -41t101.5 40.5t41.5 100.5t-41.5 101.5t-101.5 41.5t-101 -41.5t-41 -101.5z" />
    <glyph glyph-name="slash" unicode="/" horiz-adv-x="888" 
d="M0 0h186l703 1452h-187z" />
    <glyph glyph-name="zero" unicode="0" horiz-adv-x="1257" 
d="M102 664q0 -308 119 -482q142 -213 408 -213q130 0 231 51t165 144t97 219t33 281q0 208 -56.5 361.5t-176.5 243t-293 89.5t-293 -89.5t-177 -243.5t-57 -361zM301 664q0 307 117 430q83 86 211 86t211 -86q116 -122 116 -430q0 -309 -116 -431q-83 -86 -211 -86
t-211 86q-117 123 -117 431z" />
    <glyph glyph-name="one" unicode="1" horiz-adv-x="722" 
d="M51 936h322v-936h196v1327h-176q-23 -111 -115.5 -180t-226.5 -70v-141z" />
    <glyph glyph-name="two" unicode="2" horiz-adv-x="1083" 
d="M72 0h929v186h-682q22 99 162 187l262 168q250 157 250 409q0 176 -122.5 292t-325.5 116q-205 0 -332 -123.5t-127 -306.5q0 -42 2 -54l201 -24q-4 54 -4 59q0 124 67 198.5t189 74.5q115 0 182.5 -66.5t67.5 -167.5q0 -158 -183 -276l-221 -144
q-163 -104 -236.5 -230.5t-78.5 -297.5z" />
    <glyph glyph-name="three" unicode="3" horiz-adv-x="1132" 
d="M76 385q11 -179 145 -298.5t348 -119.5q109 0 200.5 33.5t152.5 91t95 135.5t34 166q0 183 -120.5 293.5t-289.5 110.5l379 350v180h-901v-184h635l-392 -361l99 -166q59 21 117 21q116 0 193 -65.5t77 -182.5q0 -107 -76.5 -176.5t-204.5 -69.5q-124 0 -206.5 79.5
t-88.5 207.5z" />
    <glyph glyph-name="four" unicode="4" horiz-adv-x="1175" 
d="M72 299h651v-299h195v299h227v186h-227v842h-277l-569 -797v-231zM256 485l467 650v-650h-467z" />
    <glyph glyph-name="five" unicode="5" horiz-adv-x="1122" 
d="M72 360q14 -167 152 -280t339 -113q214 0 351 129.5t137 323.5q0 200 -125.5 320t-325.5 120q-182 0 -270 -98l98 381h567v184h-700l-172 -659q91 -36 102 -41q66 -28 94 -37q93 96 242 96q126 0 206.5 -73.5t80.5 -200.5q0 -120 -81 -194.5t-204 -74.5q-125 0 -208.5 76
t-90.5 199z" />
    <glyph glyph-name="six" unicode="6" horiz-adv-x="1187" 
d="M104 584q0 -149 41 -267.5t112 -193.5t164.5 -114.5t201.5 -39.5q136 0 247.5 55t177.5 159t66 239q0 208 -125 330t-330 122q-119 0 -211.5 -47.5t-138.5 -124.5q12 212 139.5 344t327.5 132q140 0 238 -58l61 164q-106 74 -287 74q-149 0 -275 -54t-216.5 -152.5
t-141.5 -244.5t-51 -323zM338 422q0 127 81.5 203.5t205.5 76.5t205 -76.5t81 -203.5q0 -125 -81 -202t-205 -77q-118 0 -202.5 78.5t-84.5 200.5z" />
    <glyph glyph-name="seven" unicode="7" horiz-adv-x="989" 
d="M10 1143h748l-27 -23q-69 -61 -168 -182q-109 -133 -217 -373q-111 -247 -135 -565h207q18 194 74 379q52 171 112 288.5t146 227.5q50 66 93 113t68.5 70t67.5 57v192h-969v-184z" />
    <glyph glyph-name="eight" unicode="8" horiz-adv-x="1146" 
d="M92 350q0 -168 130.5 -274.5t350.5 -106.5q223 0 353 109q129 108 129 272q0 115 -70 203.5t-182 124.5q95 36 156 122t61 189q0 161 -127 265t-320 104t-319.5 -104t-126.5 -265q0 -104 61 -189.5t156 -121.5q-113 -38 -182.5 -125.5t-69.5 -202.5zM295 367
q0 100 75.5 163.5t202.5 63.5t203 -63.5t76 -163.5q0 -98 -76 -161t-203 -63q-129 0 -202 64q-76 64 -76 160zM328 979q0 92 68 152.5t177 60.5t177.5 -60.5t68.5 -152.5q0 -96 -69.5 -155.5t-176.5 -61.5q-107 2 -176 61.5t-69 155.5z" />
    <glyph glyph-name="nine" unicode="9" horiz-adv-x="1189" 
d="M82 899q0 -135 64 -238.5t167.5 -156.5t227.5 -53q123 0 213.5 47.5t130.5 122.5q-6 -218 -123 -344.5t-338 -126.5q-139 0 -242 63l-65 -166q50 -32 139.5 -55t167.5 -23q327 0 495 201t168 578q0 146 -40.5 263t-111 192t-163.5 115t-201 40q-133 0 -245 -58t-178 -164
t-66 -237zM285 903q0 122 83 200.5t203 78.5q118 0 202.5 -79t84.5 -200q0 -124 -83.5 -202t-203.5 -78q-122 0 -204 77t-82 203z" />
    <glyph glyph-name="colon" unicode=":" horiz-adv-x="593" 
d="M154 852q0 -59 41 -100t100 -41q60 0 101.5 40.5t41.5 100.5t-41.5 101.5t-101.5 41.5t-100.5 -41.5t-40.5 -101.5zM156 131q0 -59 41 -100t100 -41q60 0 101.5 40.5t41.5 100.5t-41.5 101.5t-101.5 41.5t-100.5 -41.5t-40.5 -101.5z" />
    <glyph glyph-name="semicolon" unicode=";" horiz-adv-x="608" 
d="M154 127q0 -60 37 -96.5t94 -36.5q26 0 43 10q-2 -74 -47.5 -134t-114.5 -77v-100q119 15 204 115t85 264q0 86 -44.5 135t-113.5 49q-61 0 -102 -37.5t-41 -91.5zM156 852q0 -59 41 -100t100 -41q60 0 101.5 40.5t41.5 100.5t-41.5 101.5t-101.5 41.5t-100.5 -41.5
t-40.5 -101.5z" />
    <glyph glyph-name="less" unicode="&#x3c;" horiz-adv-x="987" 
d="M72 500l843 -420v194l-634 314l634 313v195l-843 -422v-174z" />
    <glyph glyph-name="equal" unicode="=" horiz-adv-x="1214" 
d="M133 309h948v162h-948v-162zM133 709h948v157h-948v-157z" />
    <glyph glyph-name="greater" unicode="&#x3e;" horiz-adv-x="987" 
d="M72 80l843 420v174l-843 422v-195l639 -313l-639 -314v-194z" />
    <glyph glyph-name="question" unicode="?" horiz-adv-x="1044" 
d="M72 1063q0 -55 12 -98l199 -25q-15 41 -15 100q0 111 68 187t188 76q114 0 179 -66t65 -168q0 -127 -109 -201l-90 -61q-170 -114 -170 -320q0 -55 2 -71h181q-2 14 -2 39q0 133 90 196l94 64q209 141 209 356q0 83 -32.5 158t-89.5 131t-142.5 89.5t-184.5 33.5
q-147 0 -256 -68q-196 -125 -196 -352zM356 123q0 -55 39 -94t94 -39q56 0 96 39t40 94t-40 95t-96 40q-55 0 -94 -39.5t-39 -95.5z" />
    <glyph glyph-name="at" unicode="@" horiz-adv-x="1691" 
d="M92 682q0 -171 60.5 -316t168 -246.5t260 -158.5t330.5 -57q136 0 276.5 50.5t227.5 131.5l-84 111q-181 -144 -420 -144q-297 0 -474 174t-177 453q0 288 178 470.5t451 182.5q255 0 414 -146.5t159 -375.5q0 -153 -67.5 -271t-153.5 -118q-78 0 -78 84q0 27 6 57
l111 514h-162l-18 -108q-22 64 -83 99.5t-136 35.5q-169 0 -289.5 -138t-120.5 -339q0 -158 86.5 -254.5t226.5 -96.5q149 0 244 136q17 -64 71 -97.5t132 -33.5q162 0 275.5 153t113.5 379q0 189 -95.5 342.5t-263.5 240.5t-374 87q-164 0 -310.5 -60t-253 -164.5
t-169 -254.5t-62.5 -322zM639 649q0 121 70 211t174 90q82 0 127 -50t45 -142q-5 -147 -71.5 -239.5t-170.5 -92.5q-174 0 -174 223z" />
    <glyph glyph-name="A" unicode="A" horiz-adv-x="1427" 
d="M20 0h216l153 406h643l158 -406h217l-578 1452h-231zM461 592l248 651l252 -651h-500z" />
    <glyph glyph-name="B" unicode="B" horiz-adv-x="1232" 
d="M184 0h508q197 0 323 111.5t126 283.5q0 126 -71 223t-191 127q100 37 158.5 120t58.5 194q0 178 -119 285.5t-320 107.5h-473v-1452zM385 176v469h287q127 0 195.5 -63.5t68.5 -173.5q0 -104 -74.5 -168t-197.5 -64h-279zM385 817v459h242q123 0 194.5 -61.5
t71.5 -165.5t-70.5 -168t-187.5 -64h-250z" />
    <glyph glyph-name="C" unicode="C" horiz-adv-x="1536" 
d="M92 727q0 -137 37 -257t103.5 -211t156 -156.5t198 -99.5t226.5 -34q241 0 410.5 126.5t230.5 340.5l-178 66q-48 -162 -168 -255t-295 -93q-107 0 -201 39.5t-164 111.5t-110.5 181t-40.5 241t40.5 240.5t110.5 180.5t164 111t201 39q178 0 295 -88.5t158 -253.5l186 66
q-56 215 -225 338t-414 123q-180 0 -346 -84q-167 -89 -271 -267.5t-104 -404.5z" />
    <glyph glyph-name="D" unicode="D" horiz-adv-x="1474" 
d="M184 0h504q147 0 273.5 50t220 141t147 228.5t53.5 303.5q0 168 -53 306t-145.5 230.5t-218.5 142.5t-273 50h-508v-1452zM385 178v1096h301q219 0 354.5 -146.5t135.5 -404.5q0 -256 -137 -400.5t-357 -144.5h-297z" />
    <glyph glyph-name="E" unicode="E" horiz-adv-x="1189" 
d="M184 0h883v186h-682v445h619v188h-619v447h682v186h-883v-1452z" />
    <glyph glyph-name="F" unicode="F" horiz-adv-x="1128" 
d="M184 0h201v610h619v189h-619v467h682v186h-883v-1452z" />
    <glyph glyph-name="G" unicode="G" horiz-adv-x="1566" 
d="M92 727q0 -235 103 -412q99 -173 255 -259.5t347 -86.5q163 0 285.5 66.5t179.5 169.5l18 -205h162v711h-694v-181h503q-9 -128 -104 -243q-52 -63 -141.5 -99t-202.5 -36q-105 0 -197 39t-160.5 110.5t-108.5 181.5t-40 244q0 132 40.5 241t111 180.5t163.5 110.5
t199 39q168 0 290 -87t171 -244l182 77q-63 199 -237 319t-406 120q-182 0 -344 -84q-167 -88 -271 -266t-104 -406z" />
    <glyph glyph-name="H" unicode="H" horiz-adv-x="1511" 
d="M184 0h201v645h741v-645h201v1452h-201v-621h-741v621h-201v-1452z" />
    <glyph glyph-name="I" unicode="I" horiz-adv-x="573" 
d="M184 0h205v1452h-205v-1452z" />
    <glyph glyph-name="J" unicode="J" horiz-adv-x="1093" 
d="M41 432q0 -212 121.5 -337.5t331.5 -125.5q128 0 228.5 61.5t154 167t53.5 236.5v1018h-201v-1032q0 -124 -63 -194t-174 -70q-118 0 -184 70.5t-66 207.5v137l-201 -45v-94z" />
    <glyph glyph-name="K" unicode="K" horiz-adv-x="1368" 
d="M184 0h201v438l207 221l491 -659h254l-612 805l604 647h-264l-680 -747v747h-201v-1452z" />
    <glyph glyph-name="L" unicode="L" horiz-adv-x="1122" 
d="M184 0h887v188h-686v1264h-201v-1452z" />
    <glyph glyph-name="M" unicode="M" horiz-adv-x="1937" 
d="M184 0h199v1130l491 -1130h185l495 1130v-1130h199v1452h-268l-516 -1182l-512 1182h-273v-1452z" />
    <glyph glyph-name="N" unicode="N" horiz-adv-x="1562" 
d="M184 0h201v1184l784 -1184h209v1452h-200v-1114l-725 1114h-269v-1452z" />
    <glyph glyph-name="O" unicode="O" horiz-adv-x="1642" 
d="M92 727q0 -233 109 -410q105 -173 266.5 -260.5t353.5 -87.5q186 0 350 86q170 89 274.5 267t104.5 405q0 173 -61 319t-166 242q-105 93 -234.5 144t-267.5 51t-266.5 -51t-232.5 -144q-107 -96 -168.5 -242t-61.5 -319zM297 727q0 271 154 422q152 149 370 149
q109 0 204 -39t166.5 -111t113 -180.5t41.5 -240.5t-41.5 -241t-113 -181t-166.5 -111.5t-204 -39.5t-204 39.5t-166.5 111.5t-112.5 181t-41 241z" />
    <glyph glyph-name="P" unicode="P" horiz-adv-x="1222" 
d="M184 0h201v594h328q197 0 322.5 120.5t125.5 307.5q0 186 -125.5 308t-322.5 122h-529v-1452zM385 774v498h291q129 0 204.5 -68t75.5 -184q0 -113 -75.5 -179.5t-204.5 -66.5h-291z" />
    <glyph glyph-name="Q" unicode="Q" horiz-adv-x="1642" 
d="M92 727q0 -233 109 -410q105 -173 266.5 -260.5t353.5 -87.5q209 0 381 105l176 -195l138 121l-170 190q204 210 204 537q0 173 -61 319t-166 242q-105 93 -234.5 144t-267.5 51t-266.5 -51t-232.5 -144q-107 -96 -168.5 -242t-61.5 -319zM297 727q0 271 154 422
q152 149 370 149q109 0 204 -39t166.5 -111t113 -180.5t41.5 -240.5q0 -237 -129 -393l-254 287l-140 -121l252 -283q-111 -63 -254 -63q-109 0 -204 39.5t-166.5 111.5t-112.5 181t-41 241z" />
    <glyph glyph-name="R" unicode="R" horiz-adv-x="1267" 
d="M184 0h203v594h217l332 -594h233l-346 608q164 31 258.5 142t94.5 270q0 187 -123.5 309.5t-321.5 122.5h-547v-1452zM387 774v498h307q124 0 199.5 -68.5t75.5 -183.5q0 -112 -75.5 -179t-199.5 -67h-307z" />
    <glyph glyph-name="S" unicode="S" horiz-adv-x="1214" 
d="M78 401q25 -187 167 -309.5t376 -122.5q219 0 360 125t141 305q0 154 -99 262t-278 146l-217 47q-90 20 -138 75.5t-48 135.5q0 103 80 172.5t201 69.5q129 0 210.5 -73t96.5 -175l180 63q-16 74 -53 137t-96 114t-147 80.5t-196 29.5q-196 0 -337.5 -129.5
t-141.5 -302.5q0 -155 95 -258.5t260 -139.5l206 -45q105 -23 161.5 -82.5t56.5 -142.5q0 -102 -80.5 -166.5t-219.5 -64.5q-150 0 -243 87.5t-105 223.5z" />
    <glyph glyph-name="T" unicode="T" horiz-adv-x="1212" 
d="M20 1266h486v-1266h201v1266h485v186h-1172v-186z" />
    <glyph glyph-name="U" unicode="U" horiz-adv-x="1372" 
d="M164 496q0 -244 144.5 -385.5t377.5 -141.5q228 0 377 140q145 139 145 387v956h-200v-950q0 -166 -84 -256t-238 -90t-239 90.5t-85 255.5v950h-198v-956z" />
    <glyph glyph-name="V" unicode="V" horiz-adv-x="1345" 
d="M20 1452l547 -1452h199l559 1452h-211l-442 -1194l-439 1194h-213z" />
    <glyph glyph-name="W" unicode="W" horiz-adv-x="2056" 
d="M31 1452l420 -1452h200l375 1178l379 -1178h207l413 1452h-206l-314 -1149l-372 1149h-211l-365 -1137l-319 1137h-207z" />
    <glyph glyph-name="X" unicode="X" horiz-adv-x="1263" 
d="M20 0h236l375 567l366 -567h240l-487 727l493 725h-237l-373 -569l-367 569h-241l491 -725z" />
    <glyph glyph-name="Y" unicode="Y" horiz-adv-x="1265" 
d="M20 1452l512 -831v-621h201v621l512 831h-229l-377 -647l-377 647h-242z" />
    <glyph glyph-name="Z" unicode="Z" horiz-adv-x="1294" 
d="M92 0h1120v188h-880l870 1069v195h-1089v-186h845l-866 -1065v-201z" />
    <glyph glyph-name="bracketleft" unicode="[" horiz-adv-x="589" 
d="M184 -303h396v153h-228v1602h228v156h-396v-1911z" />
    <glyph glyph-name="backslash" unicode="\" horiz-adv-x="888" 
d="M0 1452l698 -1452h191l-699 1452h-190z" />
    <glyph glyph-name="bracketright" unicode="]" horiz-adv-x="589" 
d="M10 -150v-153h396v1911h-396v-156h228v-1602h-228z" />
    <glyph glyph-name="asciicircum" unicode="^" horiz-adv-x="1067" 
d="M51 725h203l281 528l278 -528h203l-398 729h-169z" />
    <glyph glyph-name="underscore" unicode="_" horiz-adv-x="1110" 
d="M31 0v-162h1048v162h-1048z" />
    <glyph glyph-name="grave" unicode="`" horiz-adv-x="557" 
d="M70 1411l258 -299h159l-176 299h-241z" />
    <glyph glyph-name="a" unicode="a" 
d="M102 264q0 -124 93 -209.5t237 -85.5q111 0 192 46t126 118q0 -65 10 -133h188q-12 74 -12 162v493q0 165 -104 263t-306 98q-161 0 -275.5 -90t-127.5 -230l184 -43q11 92 68.5 145.5t154.5 53.5q103 0 158 -48t55 -128q0 -65 -75 -74l-267 -39q-138 -19 -218.5 -96.5
t-80.5 -202.5zM299 274q0 62 38 99.5t105 48.5l301 45v-45q0 -147 -75 -219t-209 -72q-70 0 -115 42t-45 101z" />
    <glyph glyph-name="b" unicode="b" horiz-adv-x="1214" 
d="M164 0h190v143q99 -170 320 -170q210 0 334.5 147t124.5 378q0 230 -121 373t-332 143q-113 0 -199.5 -46.5t-126.5 -121.5v637h-190v-1483zM352 498q0 157 81.5 251.5t211.5 94.5q134 0 212.5 -93t78.5 -253q0 -161 -80 -256q-82 -97 -211 -97q-130 0 -211.5 97.5
t-81.5 255.5z" />
    <glyph glyph-name="c" unicode="c" horiz-adv-x="1085" 
d="M82 494q0 -226 141.5 -375.5t356.5 -149.5q168 0 284 87.5t160 219.5l-170 74q-26 -89 -93 -146t-181 -57q-130 0 -215.5 94.5t-85.5 252.5q0 159 85 251.5t214 92.5q109 0 174 -57.5t90 -151.5l174 73q-37 137 -151.5 225.5t-286.5 88.5q-215 0 -355.5 -147t-140.5 -375
z" />
    <glyph glyph-name="d" unicode="d" horiz-adv-x="1204" 
d="M82 496q0 -228 129 -375.5t338 -147.5q105 0 185 49t120 128v-17q0 -68 10 -133h187q-11 101 -11 182v1301h-190v-637q-31 74 -108 120t-193 46q-133 0 -240.5 -69t-167 -187t-59.5 -260zM279 496q0 154 80 250t210 96t206.5 -93.5t76.5 -248.5q0 -157 -78.5 -257
t-206.5 -100q-133 0 -210.5 97.5t-77.5 255.5z" />
    <glyph glyph-name="e" unicode="e" horiz-adv-x="1110" 
d="M84 496q0 -118 39 -217.5t105.5 -167t157.5 -105t194 -37.5q162 0 280 86t162 226l-166 57q-64 -199 -276 -199q-125 0 -210.5 84.5t-86.5 214.5h741q4 32 4 62q0 237 -126 376.5t-347 139.5q-127 0 -235 -66.5t-172 -186.5t-64 -267zM289 594q6 106 80.5 179t187.5 73
q124 0 194.5 -69t75.5 -183h-538z" />
    <glyph glyph-name="f" unicode="f" horiz-adv-x="702" 
d="M41 811h182v-811h199v811h237v174h-237v156q0 87 43.5 127.5t112.5 40.5q52 0 84 -13v172q-27 21 -115 21q-142 0 -233 -91.5t-91 -246.5v-166h-182v-174z" />
    <glyph glyph-name="g" unicode="g" horiz-adv-x="1183" 
d="M92 -53q19 -161 146 -264t309 -103q132 0 231.5 40.5t155.5 113.5q106 138 106 340v911h-190v-137q-77 156 -303 156q-196 0 -324.5 -138t-128.5 -342q0 -209 128 -343t325 -134q104 0 183.5 44t117.5 118v-141q0 -320 -301 -320q-109 0 -183 68t-85 174zM291 524
q0 142 78 229t206 87q125 0 203 -87.5t78 -228.5t-78 -228t-203 -87q-131 0 -207.5 84.5t-76.5 230.5z" />
    <glyph glyph-name="h" unicode="h" horiz-adv-x="1150" 
d="M164 0h192v580q5 118 65.5 189t164.5 71q229 0 229 -248v-592h193v625q0 176 -93 282.5t-260 106.5q-200 0 -299 -144v613h-192v-1483z" />
    <glyph glyph-name="i" unicode="i" horiz-adv-x="518" 
d="M121 1358q0 -55 41 -96t96 -41q57 0 98 40t41 97q0 59 -40.5 99t-98.5 40q-57 0 -97 -41t-40 -98zM164 0h190v985h-190v-985z" />
    <glyph glyph-name="j" unicode="j" horiz-adv-x="520" 
d="M-31 -244v-162q41 -14 115 -14q124 0 198 84.5t74 220.5v1100h-192v-1091q0 -144 -133 -144q-32 0 -62 6zM121 1362q0 -55 41 -96t96 -41q57 0 98 40t41 97q0 59 -40.5 99t-98.5 40q-57 0 -97 -41t-40 -98z" />
    <glyph glyph-name="k" unicode="k" horiz-adv-x="1075" 
d="M164 0h190v297l138 137l321 -434h242l-428 569l420 416h-267l-426 -436v934h-190v-1483z" />
    <glyph glyph-name="l" unicode="l" horiz-adv-x="520" 
d="M164 0h192v1483h-192v-1483z" />
    <glyph glyph-name="m" unicode="m" horiz-adv-x="1755" 
d="M164 0h190v594q0 111 64 180.5t166 69.5t155.5 -60.5t53.5 -165.5v-618h192v596q0 107 64 177.5t163 70.5q102 0 155.5 -60.5t53.5 -165.5v-618h191v639q0 177 -96.5 276t-243.5 99q-228 0 -330 -187q-37 90 -116.5 138.5t-178.5 48.5q-93 0 -174.5 -42t-124.5 -118v131
h-184v-985z" />
    <glyph glyph-name="n" unicode="n" horiz-adv-x="1150" 
d="M164 0h192v569q0 120 61.5 195.5t168.5 75.5q229 0 229 -248v-592h193v625q0 176 -93 282.5t-260 106.5q-204 0 -303 -170v141h-188v-985z" />
    <glyph glyph-name="o" unicode="o" horiz-adv-x="1171" 
d="M82 494q0 -228 141.5 -376.5t362.5 -148.5t362.5 148.5t141.5 376.5q0 226 -142.5 374t-361.5 148t-361 -148q-143 -149 -143 -374zM279 494q0 160 87 255t220 95t220 -95t87 -255q0 -162 -87 -257.5t-220 -95.5q-128 0 -217 95q-90 93 -90 258z" />
    <glyph glyph-name="p" unicode="p" horiz-adv-x="1214" 
d="M164 -389h190v522q44 -71 129 -115.5t191 -44.5q208 0 333.5 146t125.5 375q0 149 -53 264.5t-157 182.5t-243 67q-112 0 -199 -48.5t-131 -128.5v154h-186v-1374zM352 494q0 150 81.5 247t211.5 97q132 0 211.5 -96.5t79.5 -247.5q0 -154 -80.5 -251.5t-210.5 -97.5
t-211.5 97.5t-81.5 251.5z" />
    <glyph glyph-name="q" unicode="q" horiz-adv-x="1189" 
d="M82 496q0 -147 58.5 -266t166 -188t242.5 -69q104 0 186 45t121 121v-528h191v1374h-187v-151q-37 78 -119.5 127t-195.5 49q-207 0 -335 -146.5t-128 -367.5zM279 496q0 154 77 249t211 95q130 0 210.5 -95t80.5 -249t-81.5 -253.5t-209.5 -99.5q-129 0 -208.5 99
t-79.5 254z" />
    <glyph glyph-name="r" unicode="r" horiz-adv-x="751" 
d="M164 0h192v494q0 303 271 303q41 0 84 -6v204q-30 6 -64 6q-206 0 -295 -188v172h-188v-985z" />
    <glyph glyph-name="s" unicode="s" horiz-adv-x="925" 
d="M72 256q15 -114 122 -200.5t279 -86.5q163 0 262 90.5t99 214.5q0 110 -71.5 187t-201.5 106l-160 35q-112 24 -112 119q0 55 46.5 93t117.5 38q111 0 159 -64q35 -48 45 -100l170 64q-23 88 -92 163q-43 46 -117 73.5t-165 27.5q-143 0 -247 -92t-104 -219
q0 -105 65.5 -178.5t180.5 -98.5l168 -37q127 -27 127 -127q0 -57 -46 -94t-122 -37q-97 0 -157.5 51t-71.5 133z" />
    <glyph glyph-name="t" unicode="t" horiz-adv-x="727" 
d="M41 811h188v-541q0 -133 73.5 -206.5t201.5 -73.5q82 0 131 18v164q-31 -8 -76 -8q-73 0 -105 32.5t-32 102.5v512h213v174h-213v311h-176v-159q0 -69 -39.5 -110.5t-112.5 -41.5h-53v-174z" />
    <glyph glyph-name="u" unicode="u" horiz-adv-x="1159" 
d="M154 365q0 -174 101.5 -285t266.5 -111q95 0 174.5 39t116.5 111q0 -78 8 -119h185q-11 104 -11 182v803h-192v-594q0 -118 -60 -185t-174 -67q-111 0 -167 69t-56 185v592h-192v-620z" />
    <glyph glyph-name="v" unicode="v" horiz-adv-x="1028" 
d="M20 985l400 -985h194l394 985h-207l-283 -760l-280 760h-218z" />
    <glyph glyph-name="w" unicode="w" horiz-adv-x="1624" 
d="M31 985l323 -985h203l256 750l262 -750h199l319 985h-202l-217 -741l-256 741h-199l-256 -741l-221 741h-211z" />
    <glyph glyph-name="x" unicode="x" horiz-adv-x="1005" 
d="M20 0h230l250 362l254 -362h231l-180 252q-72 101 -182 250l350 483h-228l-237 -346l-242 346h-233l354 -483z" />
    <glyph glyph-name="y" unicode="y" 
d="M20 985l424 -876l-245 -521h211l641 1397h-207l-295 -680l-307 680h-222z" />
    <glyph glyph-name="z" unicode="z" horiz-adv-x="954" 
d="M82 0h790v174h-550l540 643v168h-772v-174h533l-541 -643v-168z" />
    <glyph glyph-name="braceleft" unicode="{" horiz-adv-x="722" 
d="M92 563q102 0 163.5 -52.5t61.5 -154.5v-278q0 -381 369 -381h27v153h-27q-110 0 -155.5 50t-45.5 166v333q0 102 -56 167.5t-157 84.5q101 19 157 84.5t56 167.5v336q0 116 45.5 165.5t155.5 49.5h27v154h-27q-369 0 -369 -381v-281q0 -102 -61.5 -154.5t-163.5 -52.5
v-176z" />
    <glyph glyph-name="bar" unicode="|" horiz-adv-x="536" 
d="M184 -303h168v1911h-168v-1911z" />
    <glyph glyph-name="braceright" unicode="}" horiz-adv-x="722" 
d="M10 -150v-153h27q369 0 369 381v278q0 102 61.5 154.5t163.5 52.5v176q-102 0 -163.5 52.5t-61.5 154.5v281q0 381 -369 381h-27v-154h27q110 0 155.5 -49.5t45.5 -165.5v-336q0 -102 56 -167.5t157 -84.5q-101 -19 -157 -84.5t-56 -167.5v-333q0 -116 -45.5 -166
t-155.5 -50h-27z" />
    <glyph glyph-name="asciitilde" unicode="~" horiz-adv-x="1167" 
d="M72 549l116 -94q85 116 197 116q53 0 111 -30l94 -52q101 -55 198 -55q194 0 308 191l-117 94q-70 -113 -191 -113q-60 0 -116 33l-94 51q-95 53 -195 53q-191 0 -311 -194z" />
    <glyph glyph-name="uni00A0" unicode="&#xa0;" horiz-adv-x="512" 
 />
    <glyph glyph-name="exclamdown" unicode="&#xa1;" horiz-adv-x="567" 
d="M150 881q0 -57 38 -95t95 -38q56 0 95.5 39t39.5 94t-40 95t-95 40t-94 -39.5t-39 -95.5zM162 -444h241l-51 1034h-137z" />
    <glyph glyph-name="cent" unicode="&#xa2;" horiz-adv-x="1110" 
d="M102 672q0 -183 107.5 -315.5t279.5 -163.5v-193h156v188q135 17 230.5 95t132.5 188l-164 68q-48 -153 -199 -183v629q74 -16 121.5 -66t67.5 -120l165 67q-32 115 -123 192.5t-231 94.5v176h-156v-180q-173 -31 -280 -161.5t-107 -315.5zM293 672q0 119 55 198
q56 81 141 107v-612q-90 30 -143 110.5t-53 196.5z" />
    <glyph glyph-name="sterling" unicode="&#xa3;" horiz-adv-x="1214" 
d="M133 0h690q156 0 248 101.5t92 265.5l-192 28q0 -96 -51 -156.5t-146 -60.5h-416q92 47 143.5 133.5t51.5 192.5q0 5 -4 55h344v176h-397q-68 157 -68 242q0 94 60 149.5t149 55.5q100 0 158 -58t59 -166l201 35q-4 76 -30.5 140.5t-76 115.5t-130.5 80t-185 29
q-173 0 -289.5 -108.5t-116.5 -272.5q0 -103 62 -242h-144v-176h205q8 -31 8 -78q0 -87 -61.5 -165t-163.5 -121v-195z" />
    <glyph glyph-name="currency" unicode="&#xa4;" horiz-adv-x="1191" 
d="M90 92l121 -121l149 156q113 -76 244 -76q125 0 234 68l143 -148l121 121l-141 146q81 106 81 251q0 137 -84 256l144 150l-123 121l-148 -152q-104 64 -227 64q-124 0 -237 -72l-154 160l-123 -121l154 -158q-76 -113 -76 -248q0 -128 72 -241zM338 489
q0 116 76.5 192.5t189.5 76.5t187.5 -76t74.5 -193q0 -118 -74.5 -194t-187.5 -76q-114 0 -190 76.5t-76 193.5z" />
    <glyph glyph-name="yen" unicode="&#xa5;" horiz-adv-x="1191" 
d="M51 1327l350 -553h-239v-145h346v-164h-346v-148h346v-317h199v317h344v148h-344v164h344v145h-244l334 553h-230l-305 -534l-321 534h-234z" />
    <glyph glyph-name="brokenbar" unicode="&#xa6;" horiz-adv-x="536" 
d="M184 -303h168v817h-168v-817zM184 791h168v817h-168v-817z" />
    <glyph glyph-name="section" unicode="&#xa7;" horiz-adv-x="1173" 
d="M174 1108q0 -87 48 -166t134 -133q-70 -26 -122 -98t-52 -156q0 -117 68.5 -194.5t216.5 -155.5l213 -111q121 -65 121 -178q0 -91 -59 -143t-158 -52q-109 0 -167.5 68.5t-58.5 187.5l-182 -36q5 -176 110 -278.5t294 -102.5q176 0 297.5 106t121.5 271
q0 85 -47.5 163.5t-132.5 132.5q70 31 121 102.5t51 153.5q0 117 -68 194.5t-218 156.5l-211 110q-123 64 -123 176q0 87 61 141t158 54q107 0 165 -67.5t58 -186.5l184 37q0 168 -108 273.5t-295 105.5q-176 0 -298 -106t-122 -269zM369 586q0 52 29 99t69 65l205 -111
q131 -67 131 -180q0 -53 -29.5 -99.5t-68.5 -64.5l-205 111q-131 67 -131 180z" />
    <glyph glyph-name="dieresis" unicode="&#xa8;" horiz-adv-x="776" 
d="M78 1272q0 -51 33.5 -85t83.5 -34q51 0 85.5 34t34.5 85q0 50 -34.5 84.5t-85.5 34.5q-49 0 -83 -34.5t-34 -84.5zM461 1272q0 -51 34 -85t85 -34q50 0 84 34t34 85q0 50 -34.5 84.5t-83.5 34.5q-51 0 -85 -34.5t-34 -84.5z" />
    <glyph glyph-name="copyright" unicode="&#xa9;" horiz-adv-x="1681" 
d="M92 727q0 -312 219 -534q217 -224 527 -224q153 0 292.5 60t239.5 161.5t159.5 242t59.5 294.5q0 153 -59.5 293t-159.5 241.5t-239.5 161.5t-292.5 60q-152 0 -290 -60t-238 -161t-159 -241t-59 -294zM252 727q0 256 170 432q168 174 416 174q162 0 296 -79
t211.5 -218.5t77.5 -308.5t-77.5 -309t-211.5 -219.5t-296 -79.5q-121 0 -229.5 47t-186.5 127.5t-124 193.5t-46 240zM438 731q0 -183 116.5 -305.5t289.5 -122.5q135 0 229.5 71t132.5 179l-139 61q-49 -165 -223 -165q-107 0 -176.5 76t-69.5 206t69 205.5t175 75.5
q88 0 142 -47.5t73 -122.5l143 59q-31 111 -124 183.5t-234 72.5q-174 0 -289 -120.5t-115 -305.5z" />
    <glyph glyph-name="ordfeminine" unicode="&#xaa;" horiz-adv-x="876" 
d="M135 821q0 -88 66 -148.5t170 -60.5q151 0 215 111q0 -59 8 -90h145q-8 31 -8 112v347q0 117 -74.5 187.5t-218.5 70.5q-119 0 -198 -64.5t-90 -163.5l141 -32q6 61 45 97t104 36q67 0 103.5 -32t36.5 -83q0 -42 -54 -51l-180 -25q-94 -12 -152.5 -68.5t-58.5 -142.5z
M289 829q0 82 96 97l195 30v-30q0 -191 -185 -191q-48 0 -77 27t-29 67z" />
    <glyph glyph-name="guillemotleft" unicode="&#xab;" horiz-adv-x="964" 
d="M61 594l273 -391h190l-268 391l268 391h-190zM461 594l272 -391h191l-269 391l269 391h-191z" />
    <glyph glyph-name="logicalnot" unicode="&#xac;" horiz-adv-x="1173" 
d="M92 705h776v-400h172v567h-948v-167z" />
    <glyph glyph-name="uni00AD" unicode="&#xad;" horiz-adv-x="739" 
d="M92 504h555v168h-555v-168z" />
    <glyph glyph-name="registered" unicode="&#xae;" horiz-adv-x="1681" 
d="M92 727q0 -312 219 -534q217 -224 527 -224q153 0 292.5 60t239.5 161.5t159.5 242t59.5 294.5q0 153 -59.5 293t-159.5 241.5t-239.5 161.5t-292.5 60q-152 0 -290 -60t-238 -161t-159 -241t-59 -294zM252 727q0 256 170 432q168 174 416 174q162 0 296 -79
t211.5 -218.5t77.5 -308.5t-77.5 -309t-211.5 -219.5t-296 -79.5q-121 0 -229.5 47t-186.5 127.5t-124 193.5t-46 240zM588 322h155v307h62l172 -307h178l-184 321q81 27 130.5 93t49.5 151q0 109 -80.5 183.5t-198.5 74.5h-284v-823zM743 764v246h107q143 0 143 -125
q0 -57 -37 -89t-106 -32h-107z" />
    <glyph glyph-name="macron" unicode="&#xaf;" horiz-adv-x="702" 
d="M72 1182h559v166h-559v-166z" />
    <glyph glyph-name="degree" unicode="&#xb0;" horiz-adv-x="759" 
d="M51 1028q0 -134 97 -228.5t231 -94.5q135 0 232.5 94.5t97.5 228.5q0 133 -98 227.5t-232 94.5t-231 -94.5t-97 -227.5zM221 1028q0 70 45 115t113 45t113 -45.5t45 -114.5t-45.5 -115.5t-112.5 -46.5t-112.5 46.5t-45.5 115.5z" />
    <glyph glyph-name="plusminus" unicode="&#xb1;" horiz-adv-x="1161" 
d="M133 104h895v162h-895v-162zM133 633h363v-275h168v275h364v158h-364v278h-168v-278h-363v-158z" />
    <glyph glyph-name="uni00B2" unicode="&#xb2;" horiz-adv-x="796" 
d="M125 705h549v133h-359q8 37 64 75l147 93q144 88 144 225q0 100 -75 167.5t-194 67.5q-121 0 -195.5 -68.5t-74.5 -170.5q0 -34 6 -64h152q-6 27 -6 54q0 54 31 86t85 32q50 0 80.5 -29t30.5 -73q0 -77 -88 -129l-123 -76q-174 -107 -174 -297v-26z" />
    <glyph glyph-name="uni00B3" unicode="&#xb3;" horiz-adv-x="843" 
d="M123 899q21 -92 101 -151.5t200 -59.5q129 0 213 71.5t84 176.5q0 96 -62 155.5t-159 67.5l205 164v129h-555v-133h350l-195 -162l60 -115q27 9 57 9q61 0 100 -29t39 -86q0 -50 -39 -81.5t-100 -31.5q-63 0 -107.5 35.5t-54.5 95.5z" />
    <glyph glyph-name="acute" unicode="&#xb4;" horiz-adv-x="561" 
d="M72 1112h161l259 299h-242z" />
    <glyph glyph-name="uni00B5" unicode="&#xb5;" horiz-adv-x="1169" 
d="M164 -389h192v399q84 -41 176 -41q95 0 174.5 39t116.5 111q0 -78 8 -119h185q-10 72 -10 182v803h-193v-594q0 -118 -60 -185t-173 -67q-111 0 -167.5 69t-56.5 185v592h-192v-1374z" />
    <glyph glyph-name="paragraph" unicode="&#xb6;" horiz-adv-x="1282" 
d="M72 1047q0 -163 117 -276.5t280 -113.5h33v-1069h170v1698h190v-1698h170v1698h199v166h-696q-203 0 -333 -109.5t-130 -295.5z" />
    <glyph glyph-name="periodcentered" unicode="&#xb7;" horiz-adv-x="571" 
d="M143 582q0 -60 41 -101t101 -41t101.5 41t41.5 101t-41.5 101.5t-101.5 41.5t-101 -41.5t-41 -101.5z" />
    <glyph glyph-name="cedilla" unicode="&#xb8;" horiz-adv-x="602" 
d="M66 -352q76 -94 225 -94q113 0 176 51.5t63 132.5q0 75 -55 121.5t-143 46.5l80 123h-146l-98 -156l68 -80q30 10 59 10q41 0 65.5 -18t24.5 -47q0 -32 -27 -50t-69 -18q-84 0 -148 70z" />
    <glyph glyph-name="uni00B9" unicode="&#xb9;" horiz-adv-x="600" 
d="M102 1206h177v-501h157v747h-145q-11 -58 -64 -98t-125 -41v-107z" />
    <glyph glyph-name="ordmasculine" unicode="&#xba;" horiz-adv-x="991" 
d="M137 981q0 -160 102 -264.5t257 -104.5t256.5 104.5t101.5 264.5t-101.5 264.5t-256.5 104.5q-154 0 -256 -105q-103 -106 -103 -264zM291 981q0 106 58 167.5t147 61.5t145.5 -61.5t56.5 -167.5t-57.5 -168.5t-144.5 -62.5q-89 0 -147 62.5t-58 168.5z" />
    <glyph glyph-name="guillemotright" unicode="&#xbb;" horiz-adv-x="964" 
d="M41 203h190l273 391l-273 391h-190l268 -391zM440 203h191l272 391l-272 391h-191l269 -391z" />
    <glyph glyph-name="onequarter" unicode="&#xbc;" horiz-adv-x="1597" 
d="M113 1081h176v-501h157v747h-145q-11 -58 -63.5 -98t-124.5 -41v-107zM166 0h188l951 1327h-185zM827 147h379v-147h158v147h131v134h-131v467h-174l-363 -451v-150zM979 281l227 284v-284h-227z" />
    <glyph glyph-name="onehalf" unicode="&#xbd;" horiz-adv-x="1595" 
d="M113 1081h176v-501h157v747h-145q-11 -58 -63.5 -98t-124.5 -41v-107zM164 0h188l951 1327h-185zM948 0h549v133h-358q9 39 63 76l148 92q143 88 143 225q0 100 -74.5 168t-193.5 68q-121 0 -196 -69t-75 -171q0 -28 7 -63h151q-6 27 -6 53q0 54 31.5 86.5t85.5 32.5
q50 0 80 -29.5t30 -73.5q0 -77 -88 -129l-123 -75q-174 -107 -174 -297v-27z" />
    <glyph glyph-name="threequarters" unicode="&#xbe;" horiz-adv-x="1740" 
d="M113 774q21 -92 101 -151.5t200 -59.5q129 0 213 71.5t84 176.5q0 96 -62.5 155.5t-159.5 67.5l205 164v129h-555v-133h350l-194 -162l59 -114q24 8 58 8q61 0 100 -29t39 -86q0 -50 -39 -81.5t-100 -31.5q-63 0 -107.5 35.5t-54.5 95.5zM346 0h189l950 1327h-185z
M971 147h379v-147h157v147h131v134h-131v467h-174l-362 -451v-150zM1122 281l228 284v-284h-228z" />
    <glyph glyph-name="questiondown" unicode="&#xbf;" horiz-adv-x="1044" 
d="M41 -63q0 -83 32 -157.5t89.5 -131t142.5 -90t184 -33.5q149 0 256 67q197 126 197 353q0 55 -12 98l-199 25q14 -38 14 -101q0 -111 -68 -186.5t-188 -75.5q-114 0 -178.5 66t-64.5 168q0 127 108 200l90 62q170 114 170 319q0 56 -2 72h-180q2 -10 2 -39
q0 -134 -90 -197l-94 -63q-209 -141 -209 -356zM387 883q0 -55 39.5 -95t95.5 -40q55 0 94 39.5t39 95.5q0 55 -39 94t-94 39q-56 0 -95.5 -39t-39.5 -94z" />
    <glyph glyph-name="Agrave" unicode="&#xc0;" horiz-adv-x="1427" 
d="M20 0h216l153 406h643l158 -406h217l-578 1452h-231zM334 1798l282 -244h191l-209 244h-264zM461 592l248 651l252 -651h-500z" />
    <glyph glyph-name="Aacute" unicode="&#xc1;" horiz-adv-x="1427" 
d="M20 0h216l153 406h643l158 -406h217l-578 1452h-231zM461 592l248 651l252 -651h-500zM614 1554h193l280 244h-266z" />
    <glyph glyph-name="Acircumflex" unicode="&#xc2;" horiz-adv-x="1427" 
d="M20 0h216l153 406h643l158 -406h217l-578 1452h-231zM352 1554h187l166 132l174 -132h188l-240 244h-245zM461 592l248 651l252 -651h-500z" />
    <glyph glyph-name="Atilde" unicode="&#xc3;" horiz-adv-x="1427" 
d="M20 0h216l153 406h643l158 -406h217l-578 1452h-231zM377 1550h139q0 90 72 90q28 0 76 -28l30 -21q68 -47 146 -47q89 0 142.5 60t53.5 168v32h-137v-16q0 -72 -65 -72q-22 0 -78 29l-31 18q-77 47 -150 47q-90 0 -144 -59.5t-54 -167.5v-33zM461 592l248 651l252 -651
h-500z" />
    <glyph glyph-name="Adieresis" unicode="&#xc4;" horiz-adv-x="1427" 
d="M20 0h216l153 406h643l158 -406h217l-578 1452h-231zM291 1677q0 -51 35 -86t86 -35t85.5 35t34.5 86t-34.5 86t-85.5 35t-86 -35t-35 -86zM461 592l248 651l252 -651h-500zM887 1677q0 -51 35 -86t86 -35t85.5 35t34.5 86t-34.5 86t-85.5 35t-86 -35t-35 -86z" />
    <glyph glyph-name="Aring" unicode="&#xc5;" horiz-adv-x="1427" 
d="M20 0h216l153 406h643l158 -406h217l-543 1364q97 79 97 192q0 104 -73.5 176t-178.5 72q-101 0 -175.5 -73t-74.5 -175q0 -120 102 -196zM461 592l248 651l252 -651h-500zM602 1556q0 43 30.5 75t72.5 32q44 0 76 -32t32 -75q0 -45 -30.5 -74.5t-77.5 -29.5
q-43 0 -73 30t-30 74z" />
    <glyph glyph-name="AE" unicode="&#xc6;" horiz-adv-x="2101" 
d="M10 0h258l258 401h570v-401h882v186h-682v445h619v188h-619v447h682v186h-1001zM641 582l455 704v-704h-455z" />
    <glyph glyph-name="Ccedilla" unicode="&#xc7;" horiz-adv-x="1536" 
d="M92 727q0 -161 51.5 -299t140.5 -234.5t210 -154.5t260 -68l-62 -98l68 -80q30 10 59 10q41 0 65.5 -18t24.5 -47q0 -32 -27 -50t-69 -18q-83 0 -147 70l-76 -92q76 -94 225 -94q113 0 176.5 51.5t63.5 132.5q0 75 -55.5 121.5t-143.5 46.5l43 67q205 23 352 147t203 316
l-178 66q-48 -159 -170.5 -253.5t-292.5 -94.5q-107 0 -201 39.5t-164 111.5t-110.5 181t-40.5 241t40.5 240.5t110.5 180.5t164 111t201 39q178 0 295 -88.5t158 -253.5l186 66q-56 215 -225 338t-414 123q-180 0 -346 -84q-167 -89 -271 -267.5t-104 -404.5z" />
    <glyph glyph-name="Egrave" unicode="&#xc8;" horiz-adv-x="1189" 
d="M184 0h883v186h-682v445h619v188h-619v447h682v186h-883v-1452zM305 1798l283 -244h190l-209 244h-264z" />
    <glyph glyph-name="Eacute" unicode="&#xc9;" horiz-adv-x="1189" 
d="M184 0h883v186h-682v445h619v188h-619v447h682v186h-883v-1452zM479 1554h193l280 244h-266z" />
    <glyph glyph-name="Ecircumflex" unicode="&#xca;" horiz-adv-x="1189" 
d="M184 0h883v186h-682v445h619v188h-619v447h682v186h-883v-1452zM268 1554h187l166 132l174 -132h188l-240 244h-245z" />
    <glyph glyph-name="Edieresis" unicode="&#xcb;" horiz-adv-x="1189" 
d="M184 0h883v186h-682v445h619v188h-619v447h682v186h-883v-1452zM272 1677q0 -51 35 -86t86 -35t86 35t35 86t-35 86t-86 35t-86 -35t-35 -86zM745 1677q0 -51 35 -86t86 -35t86 35t35 86t-35 86t-86 35t-86 -35t-35 -86z" />
    <glyph glyph-name="Igrave" unicode="&#xcc;" horiz-adv-x="573" 
d="M-92 1798l282 -244h191l-209 244h-264zM184 0h205v1452h-205v-1452z" />
    <glyph glyph-name="Iacute" unicode="&#xcd;" horiz-adv-x="573" 
d="M184 0h205v1452h-205v-1452zM193 1554h192l281 244h-267z" />
    <glyph glyph-name="Icircumflex" unicode="&#xce;" horiz-adv-x="573" 
d="M-57 1554h186l166 132l174 -132h188l-239 244h-246zM184 0h205v1452h-205v-1452z" />
    <glyph glyph-name="Idieresis" unicode="&#xcf;" horiz-adv-x="573" 
d="M23 1677q0 -50 32 -78q28 -32 76 -32q45 0 78 32t33 78q0 45 -32 77t-79 32q-45 0 -76.5 -31t-31.5 -78zM184 0h205v1452h-205v-1452zM336 1677q0 -47 32.5 -78.5t77.5 -31.5t77 31.5t32 78.5t-32 78t-77 31q-47 0 -78.5 -32t-31.5 -77z" />
    <glyph glyph-name="Eth" unicode="&#xd0;" horiz-adv-x="1482" 
d="M37 666h156v-666h503q147 0 274 50t220.5 141t147 228.5t53.5 303.5q0 168 -53 306t-146 230.5t-219 142.5t-273 50h-507v-618h-156v-168zM393 178v488h250v168h-250v440h301q219 0 354.5 -146.5t135.5 -404.5q0 -256 -137 -400.5t-357 -144.5h-297z" />
    <glyph glyph-name="Ntilde" unicode="&#xd1;" horiz-adv-x="1562" 
d="M184 0h201v1184l784 -1184h209v1452h-200v-1114l-725 1114h-269v-1452zM453 1550h139q0 90 72 90q27 0 75 -28l31 -21q68 -47 145 -47q90 0 143.5 60t53.5 168v32h-137v-16q0 -72 -66 -72q-25 0 -78 29l-30 18q-77 47 -150 47q-90 0 -144 -59.5t-54 -167.5v-33z" />
    <glyph glyph-name="Ograve" unicode="&#xd2;" horiz-adv-x="1642" 
d="M92 727q0 -233 109 -410q105 -173 266.5 -260.5t353.5 -87.5q186 0 350 86q170 89 274.5 267t104.5 405q0 173 -61 319t-166 242q-105 93 -234.5 144t-267.5 51t-266.5 -51t-232.5 -144q-107 -96 -168.5 -242t-61.5 -319zM297 727q0 271 154 422q152 149 370 149
q109 0 204 -39t166.5 -111t113 -180.5t41.5 -240.5t-41.5 -241t-113 -181t-166.5 -111.5t-204 -39.5t-204 39.5t-166.5 111.5t-112.5 181t-41 241zM457 1798l282 -244h191l-209 244h-264z" />
    <glyph glyph-name="Oacute" unicode="&#xd3;" horiz-adv-x="1642" 
d="M92 727q0 -233 109 -410q105 -173 266.5 -260.5t353.5 -87.5q186 0 350 86q170 89 274.5 267t104.5 405q0 173 -61 319t-166 242q-105 93 -234.5 144t-267.5 51t-266.5 -51t-232.5 -144q-107 -96 -168.5 -242t-61.5 -319zM297 727q0 271 154 422q152 149 370 149
q109 0 204 -39t166.5 -111t113 -180.5t41.5 -240.5t-41.5 -241t-113 -181t-166.5 -111.5t-204 -39.5t-204 39.5t-166.5 111.5t-112.5 181t-41 241zM709 1554h192l281 244h-267z" />
    <glyph glyph-name="Ocircumflex" unicode="&#xd4;" horiz-adv-x="1642" 
d="M92 727q0 -233 109 -410q105 -173 266.5 -260.5t353.5 -87.5q186 0 350 86q170 89 274.5 267t104.5 405q0 173 -61 319t-166 242q-105 93 -234.5 144t-267.5 51t-266.5 -51t-232.5 -144q-107 -96 -168.5 -242t-61.5 -319zM297 727q0 271 154 422q152 149 370 149
q109 0 204 -39t166.5 -111t113 -180.5t41.5 -240.5t-41.5 -241t-113 -181t-166.5 -111.5t-204 -39.5t-204 39.5t-166.5 111.5t-112.5 181t-41 241zM465 1554h186l166 132l174 -132h189l-240 244h-246z" />
    <glyph glyph-name="Otilde" unicode="&#xd5;" horiz-adv-x="1642" 
d="M92 727q0 -233 109 -410q105 -173 266.5 -260.5t353.5 -87.5q186 0 350 86q170 89 274.5 267t104.5 405q0 173 -61 319t-166 242q-105 93 -234.5 144t-267.5 51t-266.5 -51t-232.5 -144q-107 -96 -168.5 -242t-61.5 -319zM297 727q0 271 154 422q152 149 370 149
q109 0 204 -39t166.5 -111t113 -180.5t41.5 -240.5t-41.5 -241t-113 -181t-166.5 -111.5t-204 -39.5t-204 39.5t-166.5 111.5t-112.5 181t-41 241zM500 1552h139q0 90 72 90q27 0 75 -28l31 -21q68 -47 146 -47q89 0 142.5 60t53.5 168v32h-137v-16q0 -72 -66 -72
q-24 0 -77 29l-31 18q-77 47 -150 47q-90 0 -144 -59.5t-54 -167.5v-33z" />
    <glyph glyph-name="Odieresis" unicode="&#xd6;" horiz-adv-x="1642" 
d="M92 727q0 -233 109 -410q105 -173 266.5 -260.5t353.5 -87.5q186 0 350 86q170 89 274.5 267t104.5 405q0 173 -61 319t-166 242q-105 93 -234.5 144t-267.5 51t-266.5 -51t-232.5 -144q-107 -96 -168.5 -242t-61.5 -319zM297 727q0 271 154 422q152 149 370 149
q109 0 204 -39t166.5 -111t113 -180.5t41.5 -240.5t-41.5 -241t-113 -181t-166.5 -111.5t-204 -39.5t-204 39.5t-166.5 111.5t-112.5 181t-41 241zM383 1677q0 -51 35 -86t86 -35t86 35t35 86t-35 86t-86 35t-86 -35t-35 -86zM1020 1677q0 -51 35 -86t86 -35t86 35t35 86
t-35 86t-86 35t-86 -35t-35 -86z" />
    <glyph glyph-name="multiply" unicode="&#xd7;" horiz-adv-x="1085" 
d="M82 229l115 -114l344 356l348 -358l115 116l-349 361l346 358l-116 115l-342 -356l-342 356l-117 -117l344 -356z" />
    <glyph glyph-name="Oslash" unicode="&#xd8;" horiz-adv-x="1642" 
d="M92 727q0 -328 205 -539l-145 -188l143 -104l139 182q177 -109 387 -109q186 0 350 86q170 89 274.5 267t104.5 405q0 321 -200 533l149 192l-139 107l-148 -189q-177 113 -391 113q-138 0 -266.5 -51t-232.5 -144q-107 -96 -168.5 -242t-61.5 -319zM297 727
q0 132 41 240.5t112.5 180.5t166.5 111t204 39q150 0 277 -77l-680 -879q-121 151 -121 385zM549 225l680 879q117 -153 117 -377q0 -132 -41.5 -241t-113 -181t-166.5 -111.5t-204 -39.5q-151 0 -272 71z" />
    <glyph glyph-name="Ugrave" unicode="&#xd9;" horiz-adv-x="1372" 
d="M164 496q0 -244 144.5 -385.5t377.5 -141.5q228 0 377 140q145 139 145 387v956h-200v-950q0 -166 -84 -256t-238 -90t-239 90.5t-85 255.5v950h-198v-956zM354 1798l283 -244h190l-209 244h-264z" />
    <glyph glyph-name="Uacute" unicode="&#xda;" horiz-adv-x="1372" 
d="M164 496q0 -244 144.5 -385.5t377.5 -141.5q228 0 377 140q145 139 145 387v956h-200v-950q0 -166 -84 -256t-238 -90t-239 90.5t-85 255.5v950h-198v-956zM539 1554h192l281 244h-267z" />
    <glyph glyph-name="Ucircumflex" unicode="&#xdb;" horiz-adv-x="1372" 
d="M164 496q0 -244 144.5 -385.5t377.5 -141.5q228 0 377 140q145 139 145 387v956h-200v-950q0 -166 -84 -256t-238 -90t-239 90.5t-85 255.5v950h-198v-956zM330 1554h186l166 132l174 -132h188l-239 244h-246z" />
    <glyph glyph-name="Udieresis" unicode="&#xdc;" horiz-adv-x="1372" 
d="M164 496q0 -244 144.5 -385.5t377.5 -141.5q228 0 377 140q145 139 145 387v956h-200v-950q0 -166 -84 -256t-238 -90t-239 90.5t-85 255.5v950h-198v-956zM340 1677q0 -51 35 -86t86 -35t86 35t35 86t-35 86t-86 35t-86 -35t-35 -86zM793 1677q0 -52 34 -86
q35 -35 86 -35t86 35t35 86t-35 86t-86 35t-85.5 -35t-34.5 -86z" />
    <glyph glyph-name="Yacute" unicode="&#xdd;" horiz-adv-x="1265" 
d="M20 1452l512 -831v-621h201v621l512 831h-229l-377 -647l-377 647h-242zM483 1554h193l280 244h-266z" />
    <glyph glyph-name="Thorn" unicode="&#xde;" horiz-adv-x="1212" 
d="M184 0h201v322h320q201 0 328.5 119t127.5 304t-129.5 305.5t-329.5 120.5h-317v281h-201v-1452zM385 500v493h295q129 0 202.5 -66.5t73.5 -183.5q0 -113 -73.5 -178t-202.5 -65h-295z" />
    <glyph glyph-name="germandbls" unicode="&#xdf;" horiz-adv-x="1161" 
d="M164 0h192v999q0 146 72.5 230t185.5 84q102 0 164 -51.5t62 -131.5q0 -100 -117 -174l-66 -43q-129 -83 -129 -221q0 -110 74 -172q62 -52 141 -88l70 -33q107 -52 107 -149q0 -47 -40 -84t-104 -37q-81 0 -123.5 52t-42.5 122l-170 -45q0 -115 89.5 -202t246.5 -87
q153 0 243.5 87.5t90.5 209.5q0 100 -58 178.5t-155 124.5l-72 35q-56 27 -75 45t-19 53q0 55 64 95l59 37q180 113 180 303q0 149 -118.5 247.5t-301.5 98.5q-198 0 -324 -128.5t-126 -344.5v-1010z" />
    <glyph glyph-name="agrave" unicode="&#xe0;" 
d="M102 264q0 -124 93 -209.5t237 -85.5q111 0 192 46t126 118q0 -65 10 -133h188q-12 74 -12 162v493q0 165 -104 263t-306 98q-161 0 -275.5 -90t-127.5 -230l184 -43q11 92 68.5 145.5t154.5 53.5q103 0 158 -48t55 -128q0 -65 -75 -74l-267 -39q-138 -19 -218.5 -96.5
t-80.5 -202.5zM223 1411l258 -299h160l-176 299h-242zM299 274q0 62 38 99.5t105 48.5l301 45v-45q0 -147 -75 -219t-209 -72q-70 0 -115 42t-45 101z" />
    <glyph glyph-name="aacute" unicode="&#xe1;" 
d="M102 264q0 -124 93 -209.5t237 -85.5q111 0 192 46t126 118q0 -65 10 -133h188q-12 74 -12 162v493q0 165 -104 263t-306 98q-161 0 -275.5 -90t-127.5 -230l184 -43q11 92 68.5 145.5t154.5 53.5q103 0 158 -48t55 -128q0 -65 -75 -74l-267 -39q-138 -19 -218.5 -96.5
t-80.5 -202.5zM299 274q0 62 38 99.5t105 48.5l301 45v-45q0 -147 -75 -219t-209 -72q-70 0 -115 42t-45 101zM451 1112h161l258 299h-241z" />
    <glyph glyph-name="acircumflex" unicode="&#xe2;" 
d="M102 264q0 -124 93 -209.5t237 -85.5q111 0 192 46t126 118q0 -65 10 -133h188q-12 74 -12 162v493q0 165 -104 263t-306 98q-161 0 -275.5 -90t-127.5 -230l184 -43q11 92 68.5 145.5t154.5 53.5q103 0 158 -48t55 -128q0 -65 -75 -74l-267 -39q-138 -19 -218.5 -96.5
t-80.5 -202.5zM221 1116h178l144 166l143 -166h180l-213 285h-219zM299 274q0 62 38 99.5t105 48.5l301 45v-45q0 -147 -75 -219t-209 -72q-70 0 -115 42t-45 101z" />
    <glyph glyph-name="atilde" unicode="&#xe3;" 
d="M102 264q0 -124 93 -209.5t237 -85.5q111 0 192 46t126 118q0 -65 10 -133h188q-12 74 -12 162v493q0 165 -104 263t-306 98q-161 0 -275.5 -90t-127.5 -230l184 -43q11 92 68.5 145.5t154.5 53.5q103 0 158 -48t55 -128q0 -65 -75 -74l-267 -39q-138 -19 -218.5 -96.5
t-80.5 -202.5zM219 1137h148q0 88 59 88q26 0 76 -29l28 -18q68 -45 136 -45q90 0 144 58.5t54 164.5v30h-145q0 -88 -60 -88q-23 0 -73 29l-29 19q-68 45 -137 45q-90 0 -145.5 -59t-55.5 -165v-30zM299 274q0 62 38 99.5t105 48.5l301 45v-45q0 -147 -75 -219t-209 -72
q-70 0 -115 42t-45 101z" />
    <glyph glyph-name="adieresis" unicode="&#xe4;" 
d="M102 264q0 -124 93 -209.5t237 -85.5q111 0 192 46t126 118q0 -65 10 -133h188q-12 74 -12 162v493q0 165 -104 263t-306 98q-161 0 -275.5 -90t-127.5 -230l184 -43q11 92 68.5 145.5t154.5 53.5q103 0 158 -48t55 -128q0 -65 -75 -74l-267 -39q-138 -19 -218.5 -96.5
t-80.5 -202.5zM225 1272q0 -51 33.5 -85t83.5 -34q51 0 86 34t35 85q0 50 -35 84.5t-86 34.5q-49 0 -83 -34.5t-34 -84.5zM299 274q0 62 38 99.5t105 48.5l301 45v-45q0 -147 -75 -219t-209 -72q-70 0 -115 42t-45 101zM608 1272q0 -51 34 -85t85 -34q50 0 84.5 34t34.5 85
q0 50 -35 84.5t-84 34.5q-51 0 -85 -34.5t-34 -84.5z" />
    <glyph glyph-name="aring" unicode="&#xe5;" 
d="M102 264q0 -124 93 -209.5t237 -85.5q111 0 192 46t126 118q0 -65 10 -133h188q-12 74 -12 162v493q0 165 -104 263t-306 98q-161 0 -275.5 -90t-127.5 -230l184 -43q11 92 68.5 145.5t154.5 53.5q103 0 158 -48t55 -128q0 -65 -75 -74l-267 -39q-138 -19 -218.5 -96.5
t-80.5 -202.5zM299 274q0 62 38 99.5t105 48.5l301 45v-45q0 -147 -75 -219t-209 -72q-70 0 -115 42t-45 101zM307 1313q0 -92 67.5 -157.5t160.5 -65.5q94 0 161.5 65.5t67.5 157.5q0 93 -67.5 159t-161.5 66q-93 0 -160.5 -66t-67.5 -159zM436 1313q0 42 27.5 71t68.5 29
q42 0 71.5 -29.5t29.5 -70.5t-29 -70t-72 -29q-41 0 -68.5 28.5t-27.5 70.5z" />
    <glyph glyph-name="ae" unicode="&#xe6;" horiz-adv-x="1789" 
d="M102 264q0 -126 97.5 -210.5t255.5 -84.5q277 0 395 213q67 -102 174.5 -157.5t235.5 -55.5q156 0 277.5 87.5t164.5 224.5l-168 57q-64 -199 -274 -199q-124 0 -210 85.5t-87 213.5h741q4 28 4 62q0 237 -126 376.5t-347 139.5q-205 0 -346 -164q-108 164 -350 164
q-157 0 -280.5 -91.5t-135.5 -228.5l180 -34q11 84 75 138t161 54q103 0 164 -50.5t61 -127.5q0 -62 -78 -74l-285 -39q-138 -19 -218.5 -96.5t-80.5 -202.5zM299 270q0 131 143 152l322 45v-47q0 -95 -41.5 -161.5t-106.5 -97t-147 -30.5q-76 0 -123 40t-47 99zM969 594
q6 106 80.5 179t187.5 73q122 0 193.5 -69.5t76.5 -182.5h-538z" />
    <glyph glyph-name="ccedilla" unicode="&#xe7;" horiz-adv-x="1085" 
d="M82 494q0 -204 122 -351t312 -170l-65 -102l67 -80q30 10 60 10q41 0 65.5 -18t24.5 -47q0 -31 -27.5 -49.5t-69.5 -18.5q-83 0 -147 70l-76 -92q78 -90 225 -90q115 0 177.5 49.5t62.5 130.5q0 75 -55.5 121.5t-143.5 46.5l48 71q136 19 229.5 102t132.5 199l-170 74
q-26 -87 -95 -145t-179 -58q-130 0 -215.5 95t-85.5 252q0 156 86 250t213 94q109 0 174 -57.5t90 -151.5l174 73q-37 137 -151.5 225.5t-286.5 88.5q-212 0 -354 -148.5t-142 -373.5z" />
    <glyph glyph-name="egrave" unicode="&#xe8;" horiz-adv-x="1110" 
d="M84 496q0 -118 39 -217.5t105.5 -167t157.5 -105t194 -37.5q162 0 280 86t162 226l-166 57q-64 -199 -276 -199q-125 0 -210.5 84.5t-86.5 214.5h741q4 32 4 62q0 237 -126 376.5t-347 139.5q-127 0 -235 -66.5t-172 -186.5t-64 -267zM254 1411l258 -299h160l-176 299
h-242zM289 594q6 106 80.5 179t187.5 73q124 0 194.5 -69t75.5 -183h-538z" />
    <glyph glyph-name="eacute" unicode="&#xe9;" horiz-adv-x="1110" 
d="M84 496q0 -118 39 -217.5t105.5 -167t157.5 -105t194 -37.5q162 0 280 86t162 226l-166 57q-64 -199 -276 -199q-125 0 -210.5 84.5t-86.5 214.5h741q4 32 4 62q0 237 -126 376.5t-347 139.5q-127 0 -235 -66.5t-172 -186.5t-64 -267zM289 594q6 106 80.5 179t187.5 73
q124 0 194.5 -69t75.5 -183h-538zM471 1112h162l258 299h-242z" />
    <glyph glyph-name="ecircumflex" unicode="&#xea;" horiz-adv-x="1110" 
d="M84 496q0 -118 39 -217.5t105.5 -167t157.5 -105t194 -37.5q162 0 280 86t162 226l-166 57q-64 -199 -276 -199q-125 0 -210.5 84.5t-86.5 214.5h741q4 32 4 62q0 237 -126 376.5t-347 139.5q-127 0 -235 -66.5t-172 -186.5t-64 -267zM250 1116h178l143 166l144 -166h180
l-213 285h-219zM289 594q6 106 80.5 179t187.5 73q124 0 194.5 -69t75.5 -183h-538z" />
    <glyph glyph-name="edieresis" unicode="&#xeb;" horiz-adv-x="1110" 
d="M84 496q0 -118 39 -217.5t105.5 -167t157.5 -105t194 -37.5q162 0 280 86t162 226l-166 57q-64 -199 -276 -199q-125 0 -210.5 84.5t-86.5 214.5h741q4 32 4 62q0 237 -126 376.5t-347 139.5q-127 0 -235 -66.5t-172 -186.5t-64 -267zM258 1272q0 -51 33.5 -85t83.5 -34
q51 0 86 34t35 85q0 50 -35 84.5t-86 34.5q-49 0 -83 -34.5t-34 -84.5zM289 594q6 106 80.5 179t187.5 73q124 0 194.5 -69t75.5 -183h-538zM641 1272q0 -51 34 -85t85 -34q50 0 84.5 34t34.5 85q0 50 -34.5 84.5t-84.5 34.5q-51 0 -85 -34.5t-34 -84.5z" />
    <glyph glyph-name="igrave" unicode="&#xec;" horiz-adv-x="518" 
d="M-68 1411l258 -299h160l-176 299h-242zM164 0h190v985h-190v-985z" />
    <glyph glyph-name="iacute" unicode="&#xed;" horiz-adv-x="518" 
d="M164 0h190v985h-190v-985zM174 1112h162l258 299h-242z" />
    <glyph glyph-name="icircumflex" unicode="&#xee;" horiz-adv-x="518" 
d="M-61 1116h178l143 166l143 -166h181l-213 285h-219zM164 0h190v985h-190v-985z" />
    <glyph glyph-name="idieresis" unicode="&#xef;" horiz-adv-x="518" 
d="M6 1272q0 -49 33 -78q31 -31 76 -31q47 0 78.5 32t31.5 77q0 47 -32.5 78.5t-77.5 31.5t-77 -31.5t-32 -78.5zM164 0h190v985h-190v-985zM295 1272q0 -47 31 -78t77 -31q47 0 79 32t32 77q0 47 -32 78.5t-79 31.5q-45 0 -76.5 -31.5t-31.5 -78.5z" />
    <glyph glyph-name="eth" unicode="&#xf0;" horiz-adv-x="1167" 
d="M82 465q0 -214 141.5 -354t360.5 -140q229 0 366 157.5t137 406.5q0 430 -280 692l166 82l-64 129l-223 -113q-171 115 -356 158l-60 -156q146 -45 230 -94l-193 -96l60 -129l268 133q141 -121 207 -293q-88 102 -287 102q-126 0 -233.5 -60t-173.5 -172.5t-66 -252.5z
M276 465q0 146 88 233.5t220 87.5q133 0 219 -86.5t86 -234.5q0 -146 -86.5 -234t-218.5 -88q-128 0 -217 86q-91 88 -91 236z" />
    <glyph glyph-name="ntilde" unicode="&#xf1;" horiz-adv-x="1150" 
d="M164 0h192v569q0 120 61.5 195.5t168.5 75.5q229 0 229 -248v-592h193v625q0 176 -93 282.5t-260 106.5q-204 0 -303 -170v141h-188v-985zM281 1137h147q0 88 59 88q26 0 76 -29l29 -18q68 -45 135 -45q90 0 144.5 58.5t54.5 164.5v30h-146q0 -88 -59 -88q-24 0 -74 29
l-29 19q-68 45 -137 45q-90 0 -145 -59t-55 -165v-30z" />
    <glyph glyph-name="ograve" unicode="&#xf2;" horiz-adv-x="1171" 
d="M82 494q0 -228 141.5 -376.5t362.5 -148.5t362.5 148.5t141.5 376.5q0 226 -142.5 374t-361.5 148t-361 -148q-143 -149 -143 -374zM256 1411l258 -299h160l-176 299h-242zM279 494q0 160 87 255t220 95t220 -95t87 -255q0 -162 -87 -257.5t-220 -95.5q-128 0 -217 95
q-90 93 -90 258z" />
    <glyph glyph-name="oacute" unicode="&#xf3;" horiz-adv-x="1171" 
d="M82 494q0 -228 141.5 -376.5t362.5 -148.5t362.5 148.5t141.5 376.5q0 226 -142.5 374t-361.5 148t-361 -148q-143 -149 -143 -374zM279 494q0 160 87 255t220 95t220 -95t87 -255q0 -162 -87 -257.5t-220 -95.5q-128 0 -217 95q-90 93 -90 258zM471 1112h162l258 299
h-242z" />
    <glyph glyph-name="ocircumflex" unicode="&#xf4;" horiz-adv-x="1171" 
d="M82 494q0 -228 141.5 -376.5t362.5 -148.5t362.5 148.5t141.5 376.5q0 226 -142.5 374t-361.5 148t-361 -148q-143 -149 -143 -374zM264 1116h178l144 166l143 -166h180l-213 285h-219zM279 494q0 160 87 255t220 95t220 -95t87 -255q0 -162 -87 -257.5t-220 -95.5
q-128 0 -217 95q-90 93 -90 258z" />
    <glyph glyph-name="otilde" unicode="&#xf5;" horiz-adv-x="1171" 
d="M82 494q0 -228 141.5 -376.5t362.5 -148.5t362.5 148.5t141.5 376.5q0 226 -142.5 374t-361.5 148t-361 -148q-143 -149 -143 -374zM266 1137h148q0 88 59 88q26 0 76 -29l29 -18q68 -45 135 -45q90 0 144 58.5t54 164.5v30h-145q0 -88 -59 -88q-24 0 -74 29l-29 19
q-68 45 -137 45q-90 0 -145.5 -59t-55.5 -165v-30zM279 494q0 160 87 255t220 95t220 -95t87 -255q0 -162 -87 -257.5t-220 -95.5q-128 0 -217 95q-90 93 -90 258z" />
    <glyph glyph-name="odieresis" unicode="&#xf6;" horiz-adv-x="1171" 
d="M82 494q0 -228 141.5 -376.5t362.5 -148.5t362.5 148.5t141.5 376.5q0 226 -142.5 374t-361.5 148t-361 -148q-143 -149 -143 -374zM274 1272q0 -51 33.5 -85t83.5 -34q51 0 86 34t35 85q0 50 -35 84.5t-86 34.5q-49 0 -83 -34.5t-34 -84.5zM279 494q0 160 87 255t220 95
t220 -95t87 -255q0 -162 -87 -257.5t-220 -95.5q-128 0 -217 95q-90 93 -90 258zM657 1272q0 -51 34 -85t85 -34q50 0 84.5 34t34.5 85q0 50 -34.5 84.5t-84.5 34.5q-51 0 -85 -34.5t-34 -84.5z" />
    <glyph glyph-name="divide" unicode="&#xf7;" horiz-adv-x="1161" 
d="M113 504h936v170h-936v-170zM446 225q0 -51 41 -92t93 -41q54 0 92.5 39.5t38.5 93.5t-38.5 92.5t-92.5 38.5t-94 -38.5t-40 -92.5zM446 952q0 -51 41 -92t93 -41q54 0 92.5 39.5t38.5 93.5t-38.5 92.5t-92.5 38.5t-94 -38.5t-40 -92.5z" />
    <glyph glyph-name="oslash" unicode="&#xf8;" horiz-adv-x="1171" 
d="M82 494q0 -213 127 -361l-100 -131l122 -98l101 129q116 -64 254 -64q221 0 362.5 148.5t141.5 376.5q0 208 -127 356l104 135l-123 98l-102 -133q-123 66 -256 66q-219 0 -361.5 -148t-142.5 -374zM279 494q0 160 87 255t220 95q78 0 145 -37l-401 -520q-51 89 -51 207z
M442 176l402 520q49 -85 49 -202q0 -162 -87 -257.5t-220 -95.5q-82 0 -144 35z" />
    <glyph glyph-name="ugrave" unicode="&#xf9;" horiz-adv-x="1159" 
d="M154 365q0 -174 101.5 -285t266.5 -111q95 0 174.5 39t116.5 111q0 -78 8 -119h185q-11 104 -11 182v803h-192v-594q0 -118 -60 -185t-174 -67q-111 0 -167 69t-56 185v592h-192v-620zM266 1411l258 -299h160l-176 299h-242z" />
    <glyph glyph-name="uacute" unicode="&#xfa;" horiz-adv-x="1159" 
d="M154 365q0 -174 101.5 -285t266.5 -111q95 0 174.5 39t116.5 111q0 -78 8 -119h185q-11 104 -11 182v803h-192v-594q0 -118 -60 -185t-174 -67q-111 0 -167 69t-56 185v592h-192v-620zM446 1112h162l258 299h-241z" />
    <glyph glyph-name="ucircumflex" unicode="&#xfb;" horiz-adv-x="1159" 
d="M154 365q0 -174 101.5 -285t266.5 -111q95 0 174.5 39t116.5 111q0 -78 8 -119h185q-11 104 -11 182v803h-192v-594q0 -118 -60 -185t-174 -67q-111 0 -167 69t-56 185v592h-192v-620zM252 1116h178l143 166l144 -166h180l-213 285h-219z" />
    <glyph glyph-name="udieresis" unicode="&#xfc;" horiz-adv-x="1159" 
d="M154 365q0 -174 101.5 -285t266.5 -111q95 0 174.5 39t116.5 111q0 -78 8 -119h185q-11 104 -11 182v803h-192v-594q0 -118 -60 -185t-174 -67q-111 0 -167 69t-56 185v592h-192v-620zM262 1272q0 -51 33.5 -85t83.5 -34q51 0 86 34t35 85q0 50 -35 84.5t-86 34.5
q-49 0 -83 -34.5t-34 -84.5zM645 1272q0 -51 34 -85t85 -34q50 0 84.5 34t34.5 85q0 50 -34.5 84.5t-84.5 34.5q-51 0 -85 -34.5t-34 -84.5z" />
    <glyph glyph-name="yacute" unicode="&#xfd;" 
d="M20 985l424 -876l-245 -521h211l641 1397h-207l-295 -680l-307 680h-222zM418 1112h162l258 299h-242z" />
    <glyph glyph-name="thorn" unicode="&#xfe;" horiz-adv-x="1214" 
d="M164 -389h190v522q44 -71 129 -115.5t191 -44.5q208 0 333.5 146t125.5 375q0 149 -53 264.5t-157 182.5t-243 67q-108 0 -194 -45.5t-130 -120.5v641h-192v-1872zM352 494q0 150 81.5 247t211.5 97q132 0 211.5 -96.5t79.5 -247.5q0 -154 -80.5 -251.5t-210.5 -97.5
t-211.5 97.5t-81.5 251.5z" />
    <glyph glyph-name="ydieresis" unicode="&#xff;" 
d="M20 985l424 -876l-245 -521h211l641 1397h-207l-295 -680l-307 680h-222zM225 1272q0 -51 33.5 -85t83.5 -34q51 0 86 34t35 85q0 50 -35 84.5t-86 34.5q-49 0 -83 -34.5t-34 -84.5zM608 1272q0 -51 34 -85t85 -34q50 0 84.5 34t34.5 85q0 50 -35 84.5t-84 34.5
q-51 0 -85 -34.5t-34 -84.5z" />
    <glyph glyph-name="OE" unicode="&#x152;" horiz-adv-x="2351" 
d="M92 727q0 -233 109 -410q105 -173 266.5 -260.5t353.5 -87.5q316 0 525 221v-190h882v186h-682v445h619v188h-619v447h682v186h-882v-190q-209 221 -525 221q-138 0 -266.5 -51t-232.5 -144q-107 -96 -168.5 -242t-61.5 -319zM297 727q0 271 154 422q152 149 370 149
q109 0 204 -39t166.5 -111t113 -180.5t41.5 -240.5t-41.5 -241t-113 -181t-166.5 -111.5t-204 -39.5t-204 39.5t-166.5 111.5t-112.5 181t-41 241z" />
    <glyph glyph-name="oe" unicode="&#x153;" horiz-adv-x="1918" 
d="M82 494q0 -228 141.5 -376.5t362.5 -148.5q259 0 403 199q67 -96 172 -147.5t228 -51.5q162 0 280 86t162 226l-166 57q-64 -199 -276 -199q-124 0 -210 85.5t-87 213.5h741q4 32 4 62q0 237 -126 376.5t-347 139.5q-110 0 -209.5 -53.5t-165.5 -147.5q-145 201 -403 201
q-219 0 -361.5 -148t-142.5 -374zM279 494q0 160 87 255t220 95t220 -95t87 -255q0 -162 -87 -257.5t-220 -95.5q-128 0 -217 95q-90 93 -90 258zM1098 594q6 106 80.5 179t187.5 73q122 0 193.5 -69.5t76.5 -182.5h-538z" />
    <glyph glyph-name="Ydieresis" unicode="&#x178;" horiz-adv-x="1265" 
d="M20 1452l512 -831v-621h201v621l512 831h-229l-377 -647l-377 647h-242zM276 1677q0 -51 35 -86t86 -35t86 35t35 86t-35 86t-86 35t-86 -35t-35 -86zM750 1677q0 -52 34 -86q35 -35 86 -35t86 35t35 86t-35 86t-86 35t-85.5 -35t-34.5 -86z" />
    <glyph glyph-name="circumflex" unicode="&#x2c6;" horiz-adv-x="788" 
d="M72 1116h178l143 166l144 -166h180l-213 285h-219z" />
    <glyph glyph-name="tilde" unicode="&#x2dc;" horiz-adv-x="772" 
d="M63 1137h148q0 88 59 88q26 0 76 -29l29 -18q68 -45 135 -45q90 0 144.5 58.5t54.5 164.5v30h-146q0 -88 -59 -88q-24 0 -74 29l-29 19q-68 45 -137 45q-90 0 -145.5 -59t-55.5 -165v-30z" />
    <glyph glyph-name="uni2000" unicode="&#x2000;" horiz-adv-x="906" 
 />
    <glyph glyph-name="uni2001" unicode="&#x2001;" horiz-adv-x="1812" 
 />
    <glyph glyph-name="uni2002" unicode="&#x2002;" horiz-adv-x="906" 
 />
    <glyph glyph-name="uni2003" unicode="&#x2003;" horiz-adv-x="1812" 
 />
    <glyph glyph-name="uni2004" unicode="&#x2004;" horiz-adv-x="604" 
 />
    <glyph glyph-name="uni2005" unicode="&#x2005;" horiz-adv-x="453" 
 />
    <glyph glyph-name="uni2006" unicode="&#x2006;" horiz-adv-x="302" 
 />
    <glyph glyph-name="uni2007" unicode="&#x2007;" horiz-adv-x="302" 
 />
    <glyph glyph-name="uni2008" unicode="&#x2008;" horiz-adv-x="226" 
 />
    <glyph glyph-name="uni2009" unicode="&#x2009;" horiz-adv-x="362" 
 />
    <glyph glyph-name="uni200A" unicode="&#x200a;" horiz-adv-x="100" 
 />
    <glyph glyph-name="uni2010" unicode="&#x2010;" horiz-adv-x="739" 
d="M92 504h555v168h-555v-168z" />
    <glyph glyph-name="uni2011" unicode="&#x2011;" horiz-adv-x="739" 
d="M92 504h555v168h-555v-168z" />
    <glyph glyph-name="figuredash" unicode="&#x2012;" horiz-adv-x="739" 
d="M92 504h555v168h-555v-168z" />
    <glyph glyph-name="endash" unicode="&#x2013;" horiz-adv-x="1314" 
d="M133 504h1049v168h-1049v-168z" />
    <glyph glyph-name="emdash" unicode="&#x2014;" horiz-adv-x="2258" 
d="M154 504h1951v168h-1951v-168z" />
    <glyph glyph-name="quoteleft" unicode="&#x2018;" horiz-adv-x="446" 
d="M82 1106q0 -82 42 -128t107 -46q57 0 95.5 36t38.5 87q0 57 -34.5 91t-88.5 34q-23 0 -41 -11q2 68 45.5 127t107.5 72v96q-111 -11 -191.5 -106t-80.5 -252z" />
    <glyph glyph-name="quoteright" unicode="&#x2019;" horiz-adv-x="458" 
d="M82 1343q0 -59 36.5 -95t92.5 -36q23 0 41 11q-2 -73 -47 -133.5t-111 -73.5v-98q117 13 200 111t83 261q0 84 -44 132t-112 48q-59 0 -99 -37.5t-40 -89.5z" />
    <glyph glyph-name="quotesinglbase" unicode="&#x201a;" horiz-adv-x="458" 
d="M82 125q0 -59 36.5 -95t92.5 -36q24 0 41 10q-2 -73 -47 -133.5t-111 -73.5v-98q117 13 200 111.5t83 261.5q0 84 -44 132t-112 48q-59 0 -99 -37.5t-40 -89.5z" />
    <glyph glyph-name="quotedblleft" unicode="&#x201c;" horiz-adv-x="796" 
d="M82 1116q0 -82 42 -128t107 -46q57 0 95.5 36t38.5 87q0 57 -34.5 91t-88.5 34q-24 0 -41 -10q2 68 45.5 126.5t107.5 71.5v97q-111 -11 -191.5 -106.5t-80.5 -252.5zM432 1116q0 -82 42.5 -128t107.5 -46q57 0 95 36t38 87q0 57 -34.5 91t-88.5 34q-24 0 -41 -10
q2 68 46 126.5t108 71.5v97q-111 -11 -192 -106.5t-81 -252.5z" />
    <glyph glyph-name="quotedblright" unicode="&#x201d;" horiz-adv-x="796" 
d="M82 1341q0 -56 34 -90t89 -34q24 0 41 10q-2 -69 -45.5 -127.5t-108.5 -71.5v-96q113 15 193 109t80 249q0 82 -42.5 128t-107.5 46q-57 0 -95 -36t-38 -87zM432 1341q0 -56 34 -90t89 -34q24 0 41 10q-2 -69 -45.5 -127.5t-108.5 -71.5v-96q113 15 193 109t80 249
q0 82 -42.5 128t-107.5 46q-57 0 -95 -36t-38 -87z" />
    <glyph glyph-name="quotedblbase" unicode="&#x201e;" horiz-adv-x="796" 
d="M82 119q0 -57 34 -91t89 -34q24 0 41 10q-2 -69 -45.5 -127.5t-108.5 -71.5v-96q113 15 193 109.5t80 249.5q0 82 -42.5 128t-107.5 46q-57 0 -95 -36t-38 -87zM432 119q0 -57 34 -91t89 -34q24 0 41 10q-2 -69 -45.5 -127.5t-108.5 -71.5v-96q113 15 193 109.5t80 249.5
q0 82 -42.5 128t-107.5 46q-57 0 -95 -36t-38 -87z" />
    <glyph glyph-name="bullet" unicode="&#x2022;" horiz-adv-x="1134" 
d="M143 592q0 -173 125.5 -298.5t298.5 -125.5t298.5 125.5t125.5 298.5q0 177 -123.5 301.5t-300.5 124.5t-300.5 -124.5t-123.5 -301.5z" />
    <glyph glyph-name="ellipsis" unicode="&#x2026;" horiz-adv-x="1908" 
d="M184 121q0 -55 38.5 -93t94.5 -38t94 38t38 93q0 54 -37 94q-39 39 -95 39q-55 0 -94 -39t-39 -94zM821 121q0 -55 38.5 -93t94.5 -38t93.5 38t37.5 93t-36 94q-39 39 -95 39t-94.5 -39t-38.5 -94zM1460 121q0 -55 38.5 -93t94.5 -38q55 0 93 38t38 93t-36 94
q-39 39 -95 39q-55 0 -94 -39t-39 -94z" />
    <glyph glyph-name="uni202F" unicode="&#x202f;" horiz-adv-x="362" 
 />
    <glyph glyph-name="guilsinglleft" unicode="&#x2039;" horiz-adv-x="565" 
d="M61 594l273 -391h190l-268 391l268 391h-190z" />
    <glyph glyph-name="guilsinglright" unicode="&#x203a;" horiz-adv-x="565" 
d="M41 203h190l273 391l-273 391h-190l268 -391z" />
    <glyph glyph-name="uni205F" unicode="&#x205f;" horiz-adv-x="453" 
 />
    <glyph glyph-name="Euro" unicode="&#x20ac;" horiz-adv-x="1411" 
d="M133 414h197q71 -206 243 -325.5t381 -119.5q234 0 406 146l-100 143q-111 -111 -306 -111q-141 0 -250.5 69t-164.5 198h362l80 164h-485q-7 35 -7 88q0 38 7 82h559l80 159h-600q54 131 168 202t258 71q164 0 268 -76l82 158q-137 96 -350 96q-141 0 -267.5 -52
t-224.5 -155.5t-143 -243.5h-193v-159h162q-4 -62 -4 -82q0 -26 4 -88h-162v-164z" />
    <glyph glyph-name="trademark" unicode="&#x2122;" horiz-adv-x="1759" 
d="M61 1313h230v-608h155v608h230v139h-615v-139zM805 705h156v471l200 -471h121l207 477v-477h147v747h-190l-219 -520l-219 520h-203v-747z" />
    <glyph glyph-name="uniE000" unicode="&#xe000;" horiz-adv-x="983" 
d="M0 0v983h983v-983h-983z" />
    <glyph glyph-name="uniFB01" unicode="&#xfb01;" horiz-adv-x="1236" 
d="M41 811h182v-811h199v811h461v-811h190v985h-651v158q0 87 43.5 126.5t112.5 39.5q52 0 84 -13v172q-27 21 -115 21q-142 0 -233 -91.5t-91 -246.5v-166h-182v-174zM840 1362q0 -55 41 -96t96 -41q57 0 98 40t41 97q0 60 -39.5 99.5t-99.5 39.5q-57 0 -97 -41t-40 -98z
" />
    <glyph glyph-name="uniFB02" unicode="&#xfb02;" horiz-adv-x="1232" 
d="M41 811h182v-811h199v811h455v-811h192v1483h-192v-498h-455v156q0 87 43.5 127.5t112.5 40.5q52 0 84 -13v172q-27 21 -115 21q-142 0 -233 -91.5t-91 -246.5v-166h-182v-174z" />
    <glyph glyph-name="uniFB03" unicode="&#xfb03;" horiz-adv-x="1884" 
d="M41 811h182v-811h199v811h448v-811h199v811h461v-811h190v985h-651v156q0 87 43.5 127.5t112.5 40.5q51 0 84 -13v172q-27 21 -115 21q-142 0 -233 -91.5t-91 -246.5v-166h-448v156q0 87 43.5 127.5t112.5 40.5q52 0 84 -13v172q-27 21 -115 21q-142 0 -233 -91.5
t-91 -246.5v-166h-182v-174zM1487 1362q0 -55 41 -96t96 -41q57 0 98 40t41 97q0 60 -39.5 99.5t-99.5 39.5q-57 0 -97 -41t-40 -98z" />
    <glyph glyph-name="uniFB04" unicode="&#xfb04;" horiz-adv-x="1884" 
d="M41 811h182v-811h199v811h448v-811h199v811h461v-811h190v1483h-190v-498h-461v156q0 87 43.5 127.5t112.5 40.5q51 0 84 -13v172q-27 21 -115 21q-142 0 -233 -91.5t-91 -246.5v-166h-448v156q0 87 43.5 127.5t112.5 40.5q52 0 84 -13v172q-27 21 -115 21
q-142 0 -233 -91.5t-91 -246.5v-166h-182v-174z" />
    </font>
</defs>
</svg>
